<?xml version="1.0" encoding="utf-8"?>
<!-- Generator: Adobe Illustrator 19.1.0, SVG Export Plug-In . SVG Version: 6.00 Build 0)  -->
<svg version="1.1" id="Layer_1" xmlns="http://www.w3.org/2000/svg" xmlns:xlink="http://www.w3.org/1999/xlink" x="0px" y="0px"
	 viewBox="0 0 464.4 152.2" style="enable-background:new 0 0 464.4 152.2;" xml:space="preserve">
<style type="text/css">
	.st0{fill:#FFFFFF;}
</style>
<path class="st0" d="M0.1,38.2C0,37.9,0,37.5,0.1,37.2c0.1-0.4,0.4-0.6,0.8-0.7c3-1,5.9-1.9,8.9-2.8c0.3-0.1,0.6-0.1,1,0.1
	c0.4,0.2,0.7,0.4,0.8,0.8c1.5,4.9,3,9.8,4.5,14.7c4.9-1.5,9.7-2.9,14.6-4.3c-1.4-4.9-2.8-9.9-4.2-14.8c-0.1-0.4-0.1-0.7,0.1-1.1
	c0.2-0.3,0.5-0.6,0.9-0.7c2.9-0.8,5.9-1.6,8.8-2.4c0.4-0.1,0.8-0.1,1.1,0c0.4,0.1,0.6,0.4,0.7,0.9c3.9,14.6,7.8,29.2,11.7,43.8
	c0.1,0.5,0.1,0.8-0.1,1.1c-0.2,0.3-0.5,0.5-0.9,0.6c-2.8,0.8-5.6,1.5-8.3,2.3c-0.4,0.1-0.7,0.1-1-0.1c-0.3-0.2-0.5-0.5-0.6-0.9
	c-1.7-5.9-3.4-11.8-5-17.7c-4.8,1.4-9.6,2.8-14.4,4.2c1.8,5.9,3.6,11.7,5.4,17.6c0.1,0.4,0.1,0.8-0.1,1.1c-0.2,0.3-0.5,0.5-0.9,0.7
	c-2.7,0.8-5.5,1.7-8.2,2.6c-0.8,0.3-1.3,0-1.6-0.8C9.4,67,4.7,52.6,0.1,38.2"/>
<path class="st0" d="M60.8,21.1c0-0.1,0-0.3,0.1-0.5c0.1-0.2,0.2-0.3,0.3-0.5c0.1-0.2,0.3-0.3,0.4-0.4c0.2-0.1,0.3-0.2,0.5-0.2
	c2.6-0.6,5.2-1.2,7.8-1.8c0.3-0.1,0.7,0,1,0.1c0.3,0.2,0.5,0.3,0.7,0.5c0.4,0.5,0.8,1.1,1.2,1.6c8.4,13.1,16.5,26.4,24.3,39.7
	c0.2,0.4,0.3,0.7,0.1,1.1c-0.2,0.3-0.5,0.5-1,0.6c-2.7,0.5-5.5,1.1-8.2,1.7c-0.4,0.1-0.8,0.1-1.1-0.1c-0.3-0.1-0.5-0.4-0.7-0.8
	c-0.6-1-1.2-2-1.8-3c-0.6-1-1.2-2-1.8-3c-5.1,1.1-10.2,2.3-15.3,3.5c-0.1,1.2-0.2,2.3-0.3,3.5c-0.1,1.1-0.2,2.3-0.3,3.5
	c-0.1,0.8-0.4,1.3-1.2,1.5c-2.8,0.7-5.6,1.4-8.4,2.1c-0.4,0.1-0.7,0.1-1-0.1c-0.3-0.1-0.4-0.5-0.4-0.9
	C57.1,53.2,58.8,37.2,60.8,21.1 M69.4,33.4c-0.1,1.2-0.3,2.4-0.4,3.7c-0.1,1.3-0.2,2.7-0.3,4c-0.1,1.3-0.2,2.7-0.3,4
	c-0.1,1.3-0.2,2.6-0.3,3.7c3-0.7,6-1.4,9-2C74.6,42.3,72,37.8,69.4,33.4"/>
<path class="st0" d="M94.5,14.3c-0.1-0.4,0-0.8,0.2-1.1c0.2-0.3,0.5-0.5,0.9-0.6c6.8-1.3,13.6-2.4,20.3-3.5c1.8-0.3,3.6-0.2,5.3,0.3
	c1.7,0.5,3.2,1.3,4.6,2.3c1.4,1.1,2.5,2.4,3.4,4c0.9,1.6,1.5,3.3,1.8,5.3c0.2,1.6,0.2,3.1-0.1,4.6c-0.3,1.4-0.8,2.8-1.5,4
	c1.6,1.2,3,2.7,4.1,4.6c1.1,1.8,1.8,3.8,2.1,6c0.3,1.9,0.2,3.8-0.3,5.7c-0.4,1.8-1.1,3.5-2.1,5c-1,1.5-2.2,2.7-3.6,3.7
	c-1.4,1-3,1.6-4.6,1.9c-6.9,1.1-13.8,2.2-20.7,3.5c-0.4,0.1-0.7,0-1-0.2c-0.3-0.2-0.4-0.5-0.5-1C100,43.9,97.2,29.1,94.5,14.3
	 M119.5,22.9c-0.1-0.6-0.3-1.2-0.6-1.7c-0.3-0.5-0.7-1-1.2-1.3c-0.5-0.4-1-0.6-1.6-0.8s-1.2-0.2-1.9-0.1c-2.2,0.3-4.3,0.7-6.5,1.1
	c0.5,3.1,1,6.2,1.6,9.3c2.1-0.4,4.2-0.7,6.3-1c0.7-0.1,1.3-0.3,1.8-0.6c0.5-0.3,1-0.7,1.3-1.2c0.3-0.5,0.6-1,0.7-1.6
	C119.5,24.3,119.6,23.6,119.5,22.9 M123.9,41.3c-0.1-0.6-0.3-1.3-0.6-1.9c-0.3-0.6-0.7-1.1-1.2-1.6c-0.5-0.4-1-0.8-1.6-1
	c-0.6-0.2-1.2-0.3-1.9-0.2c-2.6,0.4-5.2,0.8-7.8,1.3c0.6,3.6,1.2,7.1,1.8,10.7c2.6-0.4,5.1-0.9,7.7-1.3c0.6-0.1,1.2-0.3,1.7-0.7
	c0.5-0.4,0.9-0.9,1.2-1.4c0.3-0.6,0.6-1.2,0.7-1.9C124,42.7,124,42,123.9,41.3"/>
<path class="st0" d="M136.6,7.5c0-0.4,0-0.7,0.2-1c0.2-0.3,0.5-0.5,1-0.5c3-0.4,6.1-0.8,9.1-1.1c0.4,0,0.7,0.1,1,0.3
	c0.3,0.2,0.5,0.6,0.6,1l3.9,35c5.4-0.6,10.8-1.1,16.1-1.6c0.4,0,0.7,0.1,0.9,0.3c0.3,0.2,0.4,0.6,0.5,1c0.2,2.8,0.5,5.7,0.7,8.5
	c0,0.4,0,0.7-0.2,1c-0.2,0.3-0.5,0.5-0.9,0.6c-8.6,0.8-17.2,1.7-25.8,2.8c-0.8,0.1-1.3-0.3-1.4-1.3C140.5,37.5,138.5,22.5,136.6,7.5
	"/>
<path class="st0" d="M174,3.8c0-0.5,0.1-0.8,0.3-1.1c0.2-0.3,0.5-0.4,1-0.5c10.2-0.8,20.5-1.3,30.7-1.7c0.5,0,0.8,0.1,1.1,0.4
	c0.3,0.3,0.4,0.6,0.4,1.1c0.1,2.7,0.2,5.3,0.3,8c0,0.4-0.1,0.7-0.3,1.1c-0.2,0.3-0.6,0.5-1.1,0.5c-6.6,0.2-13.2,0.6-19.8,1l0.5,8
	c5-0.3,10.1-0.6,15.1-0.8c0.4,0,0.7,0.1,1,0.3c0.3,0.2,0.4,0.5,0.4,1c0.1,2.3,0.2,4.7,0.3,7c0,0.3-0.1,0.6-0.3,0.9
	c-0.2,0.3-0.5,0.4-0.9,0.5c-5,0.2-9.9,0.5-14.9,0.8c0.2,2.8,0.3,5.5,0.5,8.3c6.6-0.4,13.2-0.7,19.8-1c0.9,0,1.3,0.5,1.4,1.4
	c0.1,2.7,0.2,5.4,0.3,8.1c0,0.2-0.1,0.4-0.2,0.6c-0.1,0.6-0.4,0.9-1.2,0.9c-9.8,0.3-19.5,0.9-29.3,1.6c-0.4,0-0.7-0.1-1-0.3
	c-0.2-0.2-0.4-0.5-0.4-1L174,3.8z"/>
<path class="st0" d="M218.3,1.6c0-0.4,0.2-0.7,0.4-1c0.2-0.3,0.6-0.4,1-0.4C223.3,0,226.9,0,230.5,0c0.8,0,1.3,0.4,1.5,1.2
	c2.8,9.8,5.5,19.6,8.1,29.4c2.8-9.8,5.7-19.5,8.8-29.3c0.3-0.8,0.8-1.2,1.6-1.2c3.5,0.1,7.1,0.2,10.6,0.3c0.4,0,0.7,0.2,1,0.4
	c0.3,0.3,0.4,0.6,0.5,1c0.4,7.6,0.8,15.2,1.2,22.7c0.4,7.5,0.8,15.1,1.1,22.7c0,0.1,0,0.1,0,0.2c0,0.8-0.5,1.2-1.3,1.2
	c-2.7-0.1-5.5-0.2-8.2-0.3c-0.9,0-1.3-0.5-1.3-1.5c-0.6-8.4-1.2-16.7-1.9-25.1c-2.5,8.3-4.9,16.7-7.2,25c0,0.2-0.2,0.5-0.4,0.8
	c-0.2,0.3-0.5,0.4-0.7,0.4c-2.5,0-5.1-0.1-7.6-0.1c-0.2,0-0.5-0.1-0.7-0.4c-0.3-0.3-0.4-0.6-0.4-0.8c-2.2-8.4-4.4-16.8-6.7-25.1
	c-0.8,8.3-1.6,16.7-2.4,25c0,1-0.5,1.4-1.4,1.4c-2.7,0-5.5,0.1-8.2,0.1c-0.8,0-1.3-0.4-1.3-1.4C216,31.8,217.1,16.7,218.3,1.6"/>
<path class="st0" d="M271.7,25.1c0.1-2.3,0.5-4.5,1.2-6.5c0.7-2.1,1.6-4,2.7-5.8c1.1-1.8,2.4-3.4,4-4.8c1.5-1.4,3.2-2.6,5-3.5
	c1.8-0.9,3.8-1.6,5.8-2.1c2.1-0.4,4.2-0.6,6.4-0.4c2.2,0.2,4.2,0.7,6.2,1.4c2,0.8,3.8,1.8,5.4,3c1.6,1.2,3.1,2.7,4.4,4.3
	c1.3,1.7,2.3,3.5,3.1,5.4c0.8,1.9,1.3,4,1.7,6.2c0.3,2.2,0.3,4.4,0.1,6.6c-0.3,2.3-0.8,4.4-1.6,6.5c-0.8,2-1.8,3.9-2.9,5.6
	c-1.2,1.7-2.5,3.2-4,4.6c-1.5,1.3-3.2,2.5-4.9,3.4c-1.8,0.9-3.6,1.6-5.5,2c-1.9,0.4-3.9,0.5-6,0.3c-2-0.2-4-0.6-5.8-1.3
	c-1.8-0.7-3.5-1.7-5.1-2.9c-1.6-1.2-3-2.6-4.3-4.2c-1.3-1.6-2.3-3.3-3.2-5.2c-0.9-1.9-1.5-3.9-1.9-6
	C271.8,29.6,271.6,27.4,271.7,25.1 M283.3,25.8c-0.1,1.8,0,3.5,0.5,5.1c0.4,1.6,1.1,3,2,4.2c0.9,1.2,2,2.2,3.3,3
	c1.3,0.8,2.8,1.2,4.4,1.4c1.6,0.1,3.1-0.1,4.6-0.6c1.4-0.5,2.7-1.3,3.8-2.4c1.1-1.1,2-2.3,2.7-3.8c0.7-1.5,1.2-3.1,1.3-4.9
	c0.2-1.8,0.1-3.4-0.3-5.1c-0.4-1.6-1.1-3.1-2-4.3c-0.9-1.3-2-2.3-3.4-3.1c-1.3-0.8-2.9-1.3-4.5-1.4c-1.7-0.1-3.2,0.1-4.7,0.6
	c-1.4,0.6-2.7,1.4-3.8,2.5c-1.1,1.1-2,2.4-2.7,3.9S283.5,24.1,283.3,25.8"/>
<path class="st0" d="M327.4,38.8c0.3,0.3,0.7,0.8,1.1,1.4c0.5,0.6,1,1.2,1.6,1.7c0.9,0.9,1.8,1.6,2.7,2.1c0.9,0.5,1.9,0.9,3,1
	c1,0.1,1.8,0.1,2.5,0c0.7-0.1,1.3-0.4,1.7-0.7c0.5-0.3,0.8-0.8,1-1.3c0.2-0.5,0.4-1.1,0.5-1.7c0.1-0.7,0-1.3-0.4-1.9
	c-0.4-0.6-0.9-1.1-1.5-1.6c-0.6-0.5-1.3-1-1.9-1.4c-0.7-0.4-1.3-0.7-1.8-1c-2.2-1.2-4.2-2.5-5.8-3.8c-1.6-1.3-3-2.6-4-4.1
	c-1-1.4-1.8-2.9-2.2-4.5c-0.4-1.6-0.5-3.4-0.3-5.2c0.2-2,0.8-3.8,1.8-5.3c1-1.5,2.2-2.8,3.8-3.8c1.6-1,3.4-1.6,5.5-2s4.4-0.4,6.9,0
	c1.9,0.3,3.6,0.8,5.3,1.5c1.6,0.7,3.2,1.7,4.7,2.9c0.6,0.5,1.2,1.1,1.8,1.6c0.5,0.6,1,1.1,1.4,1.6c0.4,0.5,0.7,1,0.9,1.4
	c0.2,0.4,0.3,0.8,0.2,1.1c0,0.3-0.2,0.5-0.3,0.7c-0.2,0.2-0.4,0.4-0.7,0.7c-1.8,1.5-3.7,3-5.5,4.5c-0.4,0.3-0.8,0.4-1.1,0.4
	c-0.3,0-0.5-0.2-0.7-0.4c-0.2-0.2-0.4-0.5-0.7-0.8c-0.1-0.1-0.2-0.2-0.2-0.3c-0.3-0.4-0.7-0.9-1.2-1.3c-0.4-0.5-0.9-0.9-1.4-1.3
	c-0.5-0.4-1.1-0.7-1.7-1c-0.6-0.3-1.2-0.5-1.9-0.6c-0.7-0.1-1.3-0.1-1.9-0.1c-0.6,0-1.1,0.1-1.6,0.3c-0.5,0.2-0.9,0.5-1.2,0.9
	c-0.3,0.4-0.5,0.9-0.6,1.5c-0.1,0.6,0,1.1,0.2,1.6c0.2,0.5,0.6,0.9,1.1,1.4c0.5,0.5,1.2,0.9,1.9,1.4c0.8,0.5,1.7,1,2.7,1.5
	c2,1.1,3.8,2.1,5.5,3.3c1.7,1.1,3,2.3,4.1,3.7c1.1,1.3,1.9,2.8,2.3,4.5c0.5,1.7,0.5,3.6,0.1,5.8c-0.4,2.3-1.2,4.4-2.4,6.1
	c-1.2,1.8-2.7,3.2-4.4,4.3c-1.7,1.1-3.7,1.9-5.8,2.3c-2.1,0.4-4.4,0.5-6.7,0.1c-2.2-0.3-4.3-1.1-6.3-2.2c-2-1.2-3.8-2.6-5.5-4.3
	c-0.7-0.7-1.3-1.4-1.7-2.1c-0.5-0.7-0.8-1.2-1.1-1.6c0,0,0-0.1-0.1-0.1c0,0,0-0.1,0-0.1c0,0,0,0-0.1-0.1c0,0,0-0.1,0-0.1
	c0,0,0,0-0.1-0.1c-0.4-0.6-0.6-1-0.5-1.4c0-0.4,0.3-0.7,0.8-1.1c1.9-1.6,3.8-3.1,5.7-4.7c0.5-0.3,0.8-0.4,1.1-0.4
	c0.2,0,0.4,0.1,0.5,0.3C326.9,38.3,327.1,38.5,327.4,38.8"/>
<path class="st0" d="M418.3,48.1c-0.6,2.2-1.4,4.2-2.4,6.1c-1,1.9-2.3,3.5-3.7,5c-1.4,1.5-2.9,2.7-4.6,3.8c-1.7,1.1-3.4,1.9-5.3,2.5
	c-1.8,0.6-3.8,0.9-5.7,1c-2,0.1-4-0.1-6-0.5c-4.7-1.1-9.4-2.1-14-3.1c-0.3-0.1-0.6-0.2-0.9-0.4c-0.2-0.2-0.3-0.6-0.2-1.2l9.1-44.3
	c0.1-0.4,0.3-0.8,0.6-1c0.3-0.2,0.7-0.3,1.1-0.2c5,1,10,2.1,15,3.3c2.1,0.5,4.1,1.2,6,2.3c1.8,1,3.5,2.2,4.9,3.7
	c1.5,1.4,2.7,3,3.7,4.8c1,1.8,1.8,3.6,2.4,5.6c0.5,2,0.8,4.1,0.8,6.2C419.1,43.8,418.8,45.9,418.3,48.1 M394.1,29.4
	c-1.8,8.1-3.6,16.2-5.4,24.3c0.8,0.2,1.6,0.4,2.4,0.5c0.4,0.1,0.9,0.2,1.3,0.2c0.4,0.1,0.9,0.1,1.3,0.2c1.5,0.2,2.9,0.1,4.3-0.2
	c1.4-0.3,2.7-0.9,3.9-1.7c1.2-0.8,2.2-1.9,3.1-3.1c0.9-1.3,1.5-2.7,1.9-4.4c0.4-1.8,0.5-3.5,0.3-5.1c-0.3-1.6-0.8-3.1-1.6-4.5
	c-0.8-1.3-1.9-2.5-3.2-3.4c-1.3-0.9-2.8-1.6-4.4-2C396.8,30,395.5,29.7,394.1,29.4"/>
<path class="st0" d="M431.9,28.4c0.1-0.4,0.3-0.8,0.6-1c0.3-0.2,0.7-0.2,1.1-0.1c10,2.8,19.9,5.7,29.8,8.9c0.4,0.1,0.7,0.4,0.9,0.7
	c0.2,0.3,0.2,0.7,0,1.2c-0.8,2.5-1.6,5.1-2.5,7.6c-0.1,0.3-0.3,0.6-0.7,0.9c-0.3,0.2-0.7,0.3-1.2,0.1c-6.4-2-12.7-4-19.1-5.9
	l-2.3,7.7c4.9,1.4,9.7,2.9,14.6,4.4c0.4,0.1,0.6,0.3,0.8,0.6c0.2,0.3,0.2,0.6,0.1,1c-0.7,2.2-1.4,4.4-2.1,6.7
	c-0.1,0.3-0.3,0.5-0.6,0.7c-0.3,0.2-0.6,0.2-1,0.1c-4.8-1.5-9.6-3-14.4-4.4c-0.8,2.7-1.5,5.3-2.3,8c6.4,1.9,12.8,3.8,19.1,5.9
	c0.8,0.3,1.1,0.9,0.8,1.8c-0.8,2.6-1.7,5.2-2.5,7.7c-0.1,0.2-0.2,0.4-0.4,0.5c-0.3,0.6-0.7,0.7-1.4,0.5c-9.4-3-18.9-5.9-28.4-8.5
	c-0.4-0.1-0.6-0.3-0.8-0.6c-0.2-0.3-0.2-0.6-0.1-1.1C423.9,57.5,427.9,42.9,431.9,28.4"/>
<path class="st0" d="M91.2,106.9c0.3,0.2,0.6,0.5,0.7,0.8c0.2,0.3,0.1,0.8-0.1,1.2l-4.8,7.8c-0.2,0.4-0.4,0.6-0.7,0.6
	c-0.2,0.1-0.5,0-0.9-0.3c-0.9-0.8-2-1.4-3.1-1.8c-1.1-0.4-2.3-0.6-3.6-0.6c-1.6,0-3,0.3-4.3,1c-1.3,0.7-2.5,1.6-3.4,2.8
	c-1,1.2-1.7,2.5-2.2,4.1c-0.5,1.6-0.8,3.2-0.8,5c0,1.8,0.3,3.4,0.8,5c0.5,1.5,1.3,2.9,2.2,4c1,1.2,2.1,2.1,3.4,2.7
	c1.3,0.7,2.8,1,4.3,1c1.3,0,2.5-0.2,3.6-0.7c1.1-0.4,2.2-1.1,3.1-1.9c0.3-0.2,0.6-0.3,0.9-0.3c0.2,0,0.5,0.2,0.7,0.6l4.9,8
	c0.2,0.5,0.2,0.9,0.1,1.2c-0.2,0.3-0.4,0.6-0.7,0.8c-1.8,1.4-3.7,2.4-5.8,3.2c-2.1,0.7-4.3,1.1-6.5,1.1c-2,0-4-0.3-5.8-0.9
	c-1.9-0.6-3.6-1.4-5.2-2.5c-1.6-1.1-3.1-2.4-4.4-3.9c-1.3-1.5-2.5-3.2-3.4-5c-1-1.8-1.7-3.8-2.2-5.9c-0.5-2.1-0.8-4.3-0.8-6.6
	c0-2.3,0.3-4.5,0.8-6.6c0.5-2.1,1.2-4.1,2.2-5.9c1-1.8,2.1-3.5,3.4-5c1.3-1.5,2.8-2.8,4.4-3.9c1.6-1.1,3.4-1.9,5.2-2.5
	c1.9-0.6,3.8-0.9,5.8-0.9c2.3,0,4.5,0.4,6.5,1.1C87.5,104.5,89.4,105.5,91.2,106.9"/>
<path class="st0" d="M94.6,127.5c0-2.3,0.3-4.5,0.8-6.6c0.5-2.1,1.3-4.1,2.2-5.9c1-1.8,2.1-3.5,3.4-5c1.3-1.5,2.8-2.8,4.4-3.9
	c1.6-1.1,3.4-1.9,5.2-2.5c1.9-0.6,3.8-0.9,5.8-0.9c2,0,3.9,0.3,5.8,0.9c1.9,0.6,3.6,1.4,5.2,2.5c1.6,1.1,3.1,2.4,4.4,3.9
	c1.3,1.5,2.5,3.2,3.4,5c0.9,1.8,1.7,3.8,2.2,5.9c0.5,2.1,0.8,4.3,0.8,6.6c0,2.3-0.3,4.5-0.8,6.6c-0.5,2.1-1.3,4.1-2.2,5.9
	c-0.9,1.8-2.1,3.5-3.4,5c-1.3,1.5-2.8,2.8-4.4,3.9c-1.6,1.1-3.4,1.9-5.2,2.5c-1.9,0.6-3.8,0.9-5.8,0.9c-2,0-4-0.3-5.8-0.9
	s-3.6-1.4-5.2-2.5c-1.6-1.1-3.1-2.4-4.4-3.9c-1.3-1.5-2.5-3.2-3.4-5c-1-1.8-1.7-3.8-2.2-5.9C94.8,132,94.6,129.8,94.6,127.5
	 M105.6,127.4c0,1.8,0.3,3.5,0.8,5c0.5,1.6,1.3,2.9,2.2,4.1c1,1.2,2.1,2.1,3.4,2.7s2.8,1,4.3,1c1.6,0,3-0.3,4.4-1
	c1.3-0.7,2.5-1.6,3.4-2.7c1-1.2,1.7-2.5,2.2-4.1c0.5-1.6,0.8-3.2,0.8-5c0-1.8-0.3-3.4-0.8-5c-0.5-1.6-1.3-2.9-2.2-4.1
	c-1-1.2-2.1-2.1-3.4-2.8c-1.3-0.7-2.8-1-4.4-1c-1.6,0-3,0.3-4.3,1c-1.3,0.7-2.5,1.6-3.4,2.8c-1,1.2-1.7,2.5-2.2,4.1
	C105.9,124,105.6,125.7,105.6,127.4"/>
<path class="st0" d="M145.5,104.8c0-0.4,0.1-0.7,0.3-1c0.2-0.3,0.5-0.4,0.9-0.4h9.4c0.3,0,0.5,0.1,0.8,0.2c0.3,0.2,0.5,0.4,0.7,0.8
	c2.4,4.4,4.8,8.8,7.2,13.1c2.4,4.3,4.8,8.7,7.2,13.1v-25.9c0.1-0.4,0.2-0.7,0.5-0.9c0.2-0.2,0.5-0.3,0.8-0.3h8.2
	c0.4,0,0.7,0.1,1,0.4c0.3,0.2,0.4,0.6,0.4,1.1v45.4c0,0.4-0.1,0.8-0.3,1c-0.2,0.2-0.5,0.3-0.9,0.3h-9.1c-0.2,0-0.5-0.1-0.7-0.3
	c-0.2-0.2-0.4-0.5-0.6-0.8c-2.5-4.8-5-9.4-7.5-14.1c-2.5-4.6-5-9.3-7.6-14.1V150c0,0.5-0.1,0.8-0.3,1.1c-0.2,0.2-0.5,0.4-1,0.4h-8.1
	c-0.4,0-0.8-0.1-1-0.4c-0.2-0.3-0.3-0.6-0.3-1V104.8z"/>
<path class="st0" d="M197.6,135.9c0.3,0.3,0.7,0.7,1.2,1.2c0.5,0.5,1.1,1,1.7,1.5c1,0.7,1.9,1.3,2.9,1.7c1,0.4,2,0.6,3,0.6
	c1,0,1.8-0.1,2.4-0.4c0.7-0.2,1.2-0.6,1.6-1c0.4-0.4,0.7-0.9,0.8-1.4c0.2-0.5,0.2-1.1,0.2-1.7c0-0.7-0.2-1.3-0.7-1.8
	c-0.4-0.5-1-1-1.6-1.4c-0.6-0.4-1.3-0.8-2-1.1c-0.7-0.3-1.3-0.5-1.8-0.7c-2.3-0.9-4.3-1.9-6-2.9c-1.7-1-3.1-2.2-4.3-3.5
	c-1.1-1.3-2-2.7-2.6-4.2c-0.6-1.5-0.9-3.3-0.9-5.2c0-2,0.4-3.8,1.1-5.5c0.7-1.6,1.7-3,3.1-4.2c1.3-1.2,2.9-2.1,4.8-2.7
	c1.9-0.6,4-1,6.3-1c1.7,0,3.4,0.2,5,0.7c1.6,0.4,3.2,1.1,4.7,2.1c0.6,0.4,1.3,0.9,1.8,1.3c0.6,0.5,1.1,0.9,1.5,1.3
	c0.4,0.4,0.8,0.8,1,1.2c0.3,0.4,0.4,0.7,0.4,1c0,0.3-0.1,0.5-0.2,0.8c-0.1,0.2-0.3,0.5-0.6,0.8l-4.4,5.3c-0.3,0.4-0.7,0.6-1,0.6
	c-0.3,0-0.5-0.1-0.7-0.3c-0.2-0.2-0.5-0.4-0.7-0.6l-0.3-0.3c-0.4-0.4-0.8-0.7-1.3-1.1c-0.5-0.4-1-0.7-1.5-1.1s-1.1-0.6-1.7-0.8
	s-1.2-0.3-1.8-0.3c-0.6,0-1.2,0.1-1.8,0.2c-0.6,0.1-1,0.3-1.5,0.6c-0.4,0.3-0.8,0.6-1,1c-0.2,0.4-0.4,0.9-0.4,1.5
	c0,0.6,0.1,1.1,0.4,1.6c0.3,0.4,0.7,0.9,1.2,1.2c0.5,0.4,1.2,0.7,2,1.1c0.8,0.3,1.7,0.7,2.8,1.1c2,0.8,3.9,1.5,5.6,2.4
	c1.7,0.8,3.2,1.8,4.4,2.9c1.2,1.1,2.2,2.5,2.9,4.1c0.7,1.6,1,3.5,1,5.7c0,2.4-0.4,4.5-1.3,6.5c-0.9,1.9-2,3.6-3.5,4.9
	c-1.5,1.4-3.3,2.4-5.3,3.2c-2,0.7-4.2,1.1-6.5,1.1c-2.2,0-4.4-0.4-6.5-1.3c-2.1-0.9-4.1-2.1-5.9-3.6c-0.8-0.6-1.4-1.2-1.9-1.9
	c-0.5-0.6-0.9-1.1-1.2-1.5l-0.1-0.1c0,0,0-0.1-0.1-0.1c0,0,0,0-0.1,0c0,0,0-0.1-0.1-0.1c0,0,0,0-0.1,0c-0.4-0.5-0.7-1-0.7-1.3
	c0-0.4,0.2-0.8,0.7-1.2l5-5.3c0.4-0.3,0.7-0.5,1-0.5c0.2,0,0.4,0.1,0.5,0.2C197.1,135.5,197.3,135.7,197.6,135.9"/>
<path class="st0" d="M227.5,104.8c0-0.4,0.1-0.8,0.4-1c0.3-0.3,0.6-0.4,1-0.4h30.8c0.3,0,0.7,0.1,0.9,0.4c0.3,0.2,0.4,0.6,0.5,1.1v8
	c0,0.4-0.1,0.8-0.4,1.1c-0.2,0.4-0.6,0.5-1,0.5h-9.9v35.5c0,0.4-0.1,0.7-0.4,1.1c-0.2,0.3-0.6,0.5-1,0.5H240c-0.3,0-0.6-0.1-0.9-0.4
	c-0.3-0.3-0.4-0.7-0.4-1.1v-35.5h-9.8c-0.4,0-0.7-0.1-1-0.4c-0.3-0.3-0.4-0.7-0.4-1.2V104.8z"/>
<path class="st0" d="M268,104.9c0-0.5,0.1-0.8,0.3-1.1c0.2-0.3,0.5-0.4,0.9-0.4h18.5c2,0,3.8,0.4,5.5,1.2c1.7,0.8,3.2,2,4.5,3.4
	c1.3,1.4,2.3,3.1,3,5c0.7,1.9,1.1,3.9,1.1,6.1c0,1.5-0.2,2.9-0.5,4.2c-0.4,1.3-0.8,2.6-1.5,3.7c-0.6,1.2-1.4,2.2-2.2,3.1
	c-0.9,0.9-1.8,1.7-2.8,2.4l7.4,15.7c0.1,0.3,0.3,0.7,0.5,1.1c0.2,0.4,0.3,0.8,0.3,1.1c0,0.3-0.1,0.6-0.3,0.8
	c-0.2,0.2-0.5,0.3-0.8,0.3H292c-0.3,0-0.6-0.1-0.9-0.3c-0.3-0.2-0.4-0.5-0.5-0.9l-7-14.8H279v14.6c0,0.9-0.4,1.4-1.3,1.4h-8.5
	c-0.4,0-0.7-0.1-0.9-0.3c-0.2-0.2-0.3-0.6-0.3-1.1V104.9z M290.4,119.2c0-0.6-0.1-1.3-0.3-1.9c-0.2-0.6-0.5-1.2-0.9-1.8
	c-0.4-0.5-0.8-1-1.4-1.4c-0.5-0.4-1.1-0.6-1.8-0.7c-0.5,0-1-0.1-1.5-0.1c-0.5,0-1,0-1.5,0h-4v11.9h5.3c0.3,0,0.6,0,0.9,0
	c0.3,0,0.6-0.1,0.9-0.1c0.7-0.1,1.3-0.3,1.8-0.7c0.5-0.4,1-0.8,1.3-1.3c0.4-0.5,0.6-1.1,0.8-1.8
	C290.3,120.6,290.4,119.9,290.4,119.2"/>
<path class="st0" d="M319.1,132.3c0,1.6,0.2,3,0.6,4.1c0.4,1.1,0.9,2,1.5,2.7c0.6,0.7,1.4,1.2,2.2,1.5c0.9,0.3,1.7,0.5,2.7,0.5
	c1,0,1.9-0.2,2.7-0.6c0.8-0.4,1.6-0.9,2.2-1.7c0.6-0.7,1.1-1.7,1.5-2.8c0.4-1.1,0.6-2.4,0.6-3.8v-27.5c0-0.4,0.1-0.7,0.4-1
	c0.2-0.3,0.6-0.4,1-0.4h8.4c0.4,0,0.8,0.1,1,0.4c0.2,0.3,0.4,0.6,0.4,1v27.3c0,3.8-0.5,7-1.5,9.5c-1,2.6-2.3,4.6-4,6.2
	c-1.7,1.6-3.6,2.7-5.8,3.4c-2.2,0.7-4.5,1-6.9,1c-2.4,0-4.7-0.4-6.9-1.1c-2.2-0.7-4.1-1.8-5.8-3.4c-1.7-1.6-3-3.7-4-6.2
	c-1-2.6-1.5-5.7-1.5-9.4v-27.3c0-0.4,0.1-0.7,0.3-1s0.5-0.4,0.8-0.4h8.6c0.3,0,0.6,0.1,0.9,0.4c0.3,0.3,0.5,0.6,0.5,1V132.3z"/>
<path class="st0" d="M352.6,104.8c0-0.4,0.1-0.7,0.3-1c0.2-0.3,0.5-0.4,0.9-0.4h8.4c0.3,0,0.6,0.1,0.9,0.4c0.3,0.3,0.5,0.6,0.5,1
	V150c0,1-0.5,1.4-1.4,1.4h-8.4c-0.8,0-1.3-0.5-1.3-1.4V104.8z"/>
<path class="st0" d="M373,104.9c0-0.5,0.1-0.8,0.3-1.1c0.2-0.3,0.5-0.4,0.9-0.4h18.5c2,0,3.8,0.4,5.5,1.2c1.7,0.8,3.2,2,4.5,3.4
	c1.3,1.4,2.3,3.1,3,5c0.7,1.9,1.1,3.9,1.1,6.1c0,1.5-0.2,2.9-0.5,4.2c-0.4,1.3-0.8,2.6-1.5,3.7c-0.6,1.2-1.4,2.2-2.2,3.1
	c-0.9,0.9-1.8,1.7-2.8,2.4l7.4,15.7c0.1,0.3,0.3,0.7,0.5,1.1c0.2,0.4,0.3,0.8,0.3,1.1c0,0.3-0.1,0.6-0.3,0.8
	c-0.2,0.2-0.5,0.3-0.8,0.3H397c-0.3,0-0.6-0.1-0.9-0.3c-0.3-0.2-0.4-0.5-0.5-0.9l-7-14.8h-4.6v14.6c0,0.9-0.4,1.4-1.3,1.4h-8.5
	c-0.4,0-0.7-0.1-0.9-0.3c-0.2-0.2-0.3-0.6-0.3-1.1V104.9z M395.4,119.2c0-0.6-0.1-1.3-0.3-1.9c-0.2-0.6-0.5-1.2-0.9-1.8
	c-0.4-0.5-0.8-1-1.4-1.4c-0.5-0.4-1.1-0.6-1.8-0.7c-0.5,0-1-0.1-1.5-0.1c-0.5,0-1,0-1.5,0h-4v11.9h5.3c0.3,0,0.6,0,0.9,0
	c0.3,0,0.6-0.1,0.9-0.1c0.7-0.1,1.3-0.3,1.8-0.7c0.5-0.4,1-0.8,1.3-1.3c0.4-0.5,0.6-1.1,0.8-1.8
	C395.3,120.6,395.4,119.9,395.4,119.2"/>
</svg>
