<?xml version="1.0" encoding="utf-8"?>
<!-- Generator: Adobe Illustrator 19.1.0, SVG Export Plug-In . SVG Version: 6.00 Build 0)  -->
<svg version="1.1" id="Layer_1" xmlns="http://www.w3.org/2000/svg" xmlns:xlink="http://www.w3.org/1999/xlink" x="0px" y="0px"
	 viewBox="0 0 107 95.9" style="enable-background:new 0 0 107 95.9;" xml:space="preserve">
<style type="text/css">
	.st0{fill:#363436;}
	.st1{fill:#BF7E2A;}
	.st2{fill:#9F5625;}
	.st3{fill:#7A3118;}
	.st4{fill:#424143;}
	.st5{fill:#221F1F;}
	.st6{fill:#F1F1F1;}
</style>
<path class="st0" d="M20.2,5.5c0-0.1,0-0.1,0-0.2c0-0.1,0.1-0.1,0.1-0.1c0.4-0.1,0.9-0.3,1.3-0.4c0,0,0.1,0,0.1,0
	c0.1,0,0.1,0.1,0.1,0.1c0.2,0.7,0.4,1.4,0.6,2.1c0.7-0.2,1.4-0.4,2.1-0.6c-0.2-0.7-0.4-1.4-0.6-2.1c0-0.1,0-0.1,0-0.2
	c0,0,0.1-0.1,0.1-0.1C24.6,4,25,3.9,25.4,3.7c0.1,0,0.1,0,0.2,0c0.1,0,0.1,0.1,0.1,0.1c0.6,2.1,1.1,4.2,1.7,6.3c0,0.1,0,0.1,0,0.2
	c0,0-0.1,0.1-0.1,0.1c-0.4,0.1-0.8,0.2-1.2,0.3c-0.1,0-0.1,0-0.1,0c0,0-0.1-0.1-0.1-0.1c-0.2-0.8-0.5-1.7-0.7-2.5
	c-0.7,0.2-1.4,0.4-2.1,0.6c0.3,0.8,0.5,1.7,0.8,2.5c0,0.1,0,0.1,0,0.2c0,0-0.1,0.1-0.1,0.1c-0.4,0.1-0.8,0.2-1.2,0.4
	c-0.1,0-0.2,0-0.2-0.1C21.6,9.6,20.9,7.6,20.2,5.5"/>
<path class="st0" d="M29,3C29,3,29,3,29,3c0-0.1,0-0.1,0.1-0.1c0,0,0,0,0.1-0.1c0,0,0,0,0.1,0c0.4-0.1,0.7-0.2,1.1-0.3
	c0,0,0.1,0,0.1,0c0,0,0.1,0,0.1,0.1c0.1,0.1,0.1,0.2,0.2,0.2c1.2,1.9,2.4,3.8,3.5,5.7c0,0.1,0,0.1,0,0.2c0,0-0.1,0.1-0.1,0.1
	c-0.4,0.1-0.8,0.2-1.2,0.2c-0.1,0-0.1,0-0.2,0c0,0-0.1-0.1-0.1-0.1c-0.1-0.1-0.2-0.3-0.3-0.4c-0.1-0.1-0.2-0.3-0.3-0.4
	c-0.7,0.2-1.5,0.3-2.2,0.5c0,0.2,0,0.3,0,0.5c0,0.2,0,0.3,0,0.5c0,0.1-0.1,0.2-0.2,0.2c-0.4,0.1-0.8,0.2-1.2,0.3c-0.1,0-0.1,0-0.1,0
	c0,0-0.1-0.1-0.1-0.1C28.4,7.7,28.7,5.3,29,3 M30.2,4.8c0,0.2,0,0.3-0.1,0.5c0,0.2,0,0.4,0,0.6c0,0.2,0,0.4,0,0.6c0,0.2,0,0.4,0,0.5
	c0.4-0.1,0.9-0.2,1.3-0.3C31,6.1,30.6,5.4,30.2,4.8"/>
<path class="st0" d="M33.8,2.1c0-0.1,0-0.1,0-0.2c0,0,0.1-0.1,0.1-0.1c1-0.2,1.9-0.3,2.9-0.5c0.3,0,0.5,0,0.8,0
	c0.2,0.1,0.5,0.2,0.7,0.3c0.2,0.2,0.4,0.3,0.5,0.6C38.9,2.5,39,2.7,39.1,3c0,0.2,0,0.4,0,0.7c0,0.2-0.1,0.4-0.2,0.6
	c0.2,0.2,0.4,0.4,0.6,0.7c0.2,0.3,0.3,0.6,0.3,0.9c0,0.3,0,0.6,0,0.8c-0.1,0.3-0.2,0.5-0.3,0.7c-0.1,0.2-0.3,0.4-0.5,0.5
	c-0.2,0.1-0.4,0.2-0.7,0.3c-1,0.2-2,0.3-3,0.5c-0.1,0-0.1,0-0.1,0c0,0-0.1-0.1-0.1-0.1C34.6,6.3,34.2,4.2,33.8,2.1 M37.4,3.3
	c0-0.1,0-0.2-0.1-0.3c0-0.1-0.1-0.1-0.2-0.2c-0.1-0.1-0.1-0.1-0.2-0.1c-0.1,0-0.2,0-0.3,0c-0.3,0.1-0.6,0.1-0.9,0.2
	c0.1,0.4,0.2,0.9,0.2,1.3c0.3-0.1,0.6-0.1,0.9-0.1c0.1,0,0.2,0,0.3-0.1c0.1,0,0.1-0.1,0.2-0.2c0-0.1,0.1-0.1,0.1-0.2
	C37.4,3.5,37.4,3.4,37.4,3.3 M38,5.9c0-0.1,0-0.2-0.1-0.3c0-0.1-0.1-0.2-0.2-0.2c-0.1-0.1-0.1-0.1-0.2-0.1c-0.1,0-0.2,0-0.3,0
	c-0.4,0.1-0.8,0.1-1.1,0.2c0.1,0.5,0.2,1,0.3,1.5c0.4-0.1,0.7-0.1,1.1-0.2c0.1,0,0.2-0.1,0.2-0.1c0.1-0.1,0.1-0.1,0.2-0.2
	C38,6.4,38,6.3,38,6.2C38.1,6.1,38.1,6,38,5.9"/>
<path class="st0" d="M39.9,1.1c0-0.1,0-0.1,0-0.1c0,0,0.1-0.1,0.1-0.1c0.4-0.1,0.9-0.1,1.3-0.2c0.1,0,0.1,0,0.1,0
	c0,0,0.1,0.1,0.1,0.1c0.2,1.7,0.4,3.4,0.6,5c0.8-0.1,1.5-0.2,2.3-0.2c0,0,0.1,0,0.1,0c0,0,0.1,0.1,0.1,0.1c0,0.4,0.1,0.8,0.1,1.2
	c0,0.1,0,0.1,0,0.1s-0.1,0.1-0.1,0.1c-1.2,0.1-2.5,0.2-3.7,0.4c-0.1,0-0.2,0-0.2-0.2C40.4,5.4,40.2,3.2,39.9,1.1"/>
<path class="st0" d="M45.3,0.5c0-0.1,0-0.1,0-0.2c0,0,0.1-0.1,0.1-0.1c1.5-0.1,2.9-0.2,4.4-0.2c0.1,0,0.1,0,0.2,0.1
	c0,0,0.1,0.1,0.1,0.2c0,0.4,0,0.8,0,1.2c0,0.1,0,0.1,0,0.2c0,0-0.1,0.1-0.2,0.1c-0.9,0-1.9,0.1-2.8,0.1c0,0.4,0,0.8,0.1,1.2
	c0.7,0,1.4-0.1,2.2-0.1c0.1,0,0.1,0,0.1,0c0,0,0.1,0.1,0.1,0.1c0,0.3,0,0.7,0,1c0,0,0,0.1,0,0.1c0,0-0.1,0.1-0.1,0.1
	c-0.7,0-1.4,0.1-2.1,0.1c0,0.4,0,0.8,0.1,1.2c0.9-0.1,1.9-0.1,2.8-0.1c0.1,0,0.2,0.1,0.2,0.2c0,0.4,0,0.8,0,1.2c0,0,0,0.1,0,0.1
	c0,0.1-0.1,0.1-0.2,0.1c-1.4,0-2.8,0.1-4.2,0.2c-0.1,0-0.1,0-0.1,0c0,0-0.1-0.1-0.1-0.1C45.6,4.9,45.4,2.7,45.3,0.5"/>
<path class="st0" d="M51.6,0.2c0-0.1,0-0.1,0.1-0.1c0,0,0.1-0.1,0.1-0.1c0.5,0,1,0,1.5,0c0.1,0,0.2,0.1,0.2,0.2
	C54,1.6,54.4,3,54.8,4.4C55.2,3,55.6,1.6,56,0.2c0-0.1,0.1-0.2,0.2-0.2c0.5,0,1,0,1.5,0c0.1,0,0.1,0,0.1,0.1c0,0,0.1,0.1,0.1,0.1
	c0.1,1.1,0.1,2.2,0.2,3.3c0.1,1.1,0.1,2.2,0.2,3.3c0,0,0,0,0,0C58.3,7,58.3,7,58.1,7c-0.4,0-0.8,0-1.2,0c-0.1,0-0.2-0.1-0.2-0.2
	c-0.1-1.2-0.2-2.4-0.3-3.6c-0.4,1.2-0.7,2.4-1,3.6c0,0,0,0.1-0.1,0.1c0,0-0.1,0.1-0.1,0.1c-0.4,0-0.7,0-1.1,0c0,0-0.1,0-0.1-0.1
	c0,0-0.1-0.1-0.1-0.1c-0.3-1.2-0.6-2.4-1-3.6c-0.1,1.2-0.2,2.4-0.3,3.6c0,0.1-0.1,0.2-0.2,0.2c-0.4,0-0.8,0-1.2,0
	c-0.1,0-0.2-0.1-0.2-0.2C51.3,4.6,51.5,2.4,51.6,0.2"/>
<path class="st0" d="M59.3,3.6c0-0.3,0.1-0.6,0.2-0.9c0.1-0.3,0.2-0.6,0.4-0.8c0.2-0.3,0.4-0.5,0.6-0.7c0.2-0.2,0.5-0.4,0.7-0.5
	c0.3-0.1,0.5-0.2,0.8-0.3c0.3-0.1,0.6-0.1,0.9-0.1c0.3,0,0.6,0.1,0.9,0.2c0.3,0.1,0.5,0.3,0.8,0.4c0.2,0.2,0.4,0.4,0.6,0.6
	c0.2,0.2,0.3,0.5,0.4,0.8c0.1,0.3,0.2,0.6,0.2,0.9c0,0.3,0,0.6,0,1c0,0.3-0.1,0.6-0.2,0.9c-0.1,0.3-0.3,0.6-0.4,0.8
	c-0.2,0.2-0.4,0.5-0.6,0.7c-0.2,0.2-0.5,0.4-0.7,0.5c-0.3,0.1-0.5,0.2-0.8,0.3s-0.6,0.1-0.9,0.1c-0.3,0-0.6-0.1-0.8-0.2
	C61.2,7.1,61,7,60.7,6.8c-0.2-0.2-0.4-0.4-0.6-0.6c-0.2-0.2-0.3-0.5-0.5-0.7c-0.1-0.3-0.2-0.6-0.3-0.9C59.3,4.3,59.3,3.9,59.3,3.6
	 M61,3.7C61,4,61,4.2,61,4.4c0.1,0.2,0.2,0.4,0.3,0.6c0.1,0.2,0.3,0.3,0.5,0.4c0.2,0.1,0.4,0.2,0.6,0.2c0.2,0,0.5,0,0.7-0.1
	c0.2-0.1,0.4-0.2,0.5-0.3c0.2-0.2,0.3-0.3,0.4-0.5c0.1-0.2,0.2-0.4,0.2-0.7c0-0.3,0-0.5,0-0.7C64.1,3,64,2.8,63.9,2.6
	c-0.1-0.2-0.3-0.3-0.5-0.4C63.2,2.1,63,2,62.8,2c-0.2,0-0.5,0-0.7,0.1c-0.2,0.1-0.4,0.2-0.6,0.4c-0.2,0.2-0.3,0.3-0.4,0.6
	C61.1,3.2,61,3.5,61,3.7"/>
<path class="st0" d="M67.3,5.6c0,0.1,0.1,0.1,0.2,0.2c0.1,0.1,0.1,0.2,0.2,0.3c0.1,0.1,0.3,0.2,0.4,0.3c0.1,0.1,0.3,0.1,0.4,0.1
	c0.1,0,0.3,0,0.4,0c0.1,0,0.2-0.1,0.3-0.1s0.1-0.1,0.2-0.2c0-0.1,0.1-0.2,0.1-0.2c0-0.1,0-0.2-0.1-0.3c-0.1-0.1-0.1-0.2-0.2-0.2
	c-0.1-0.1-0.2-0.1-0.3-0.2c-0.1-0.1-0.2-0.1-0.3-0.1c-0.3-0.2-0.6-0.4-0.8-0.5c-0.2-0.2-0.4-0.4-0.6-0.6c-0.1-0.2-0.3-0.4-0.3-0.7
	c-0.1-0.2-0.1-0.5,0-0.8c0-0.3,0.1-0.5,0.3-0.8c0.1-0.2,0.3-0.4,0.5-0.5C67.8,1.1,68.1,1,68.4,1c0.3-0.1,0.6-0.1,1,0
	c0.3,0,0.5,0.1,0.8,0.2c0.2,0.1,0.5,0.2,0.7,0.4c0.1,0.1,0.2,0.2,0.3,0.2c0.1,0.1,0.1,0.2,0.2,0.2c0.1,0.1,0.1,0.1,0.1,0.2
	c0,0.1,0,0.1,0,0.2c0,0,0,0.1,0,0.1c0,0-0.1,0.1-0.1,0.1c-0.3,0.2-0.5,0.4-0.8,0.6c-0.1,0-0.1,0.1-0.2,0.1c0,0-0.1,0-0.1-0.1
	c0,0-0.1-0.1-0.1-0.1c0,0,0,0,0,0C70.1,3.1,70,3,69.9,2.9c-0.1-0.1-0.1-0.1-0.2-0.2c-0.1-0.1-0.2-0.1-0.2-0.1
	c-0.1,0-0.2-0.1-0.3-0.1c-0.1,0-0.2,0-0.3,0c-0.1,0-0.2,0-0.2,0.1c-0.1,0-0.1,0.1-0.2,0.1c0,0.1-0.1,0.1-0.1,0.2c0,0.1,0,0.2,0,0.2
	c0,0.1,0.1,0.1,0.2,0.2c0.1,0.1,0.2,0.1,0.3,0.2c0.1,0.1,0.2,0.1,0.4,0.2c0.3,0.2,0.6,0.3,0.8,0.5c0.2,0.2,0.4,0.3,0.6,0.5
	C70.9,4.9,71,5.1,71,5.4s0.1,0.5,0,0.8c-0.1,0.3-0.2,0.6-0.3,0.9c-0.2,0.3-0.4,0.5-0.6,0.6C69.8,7.9,69.5,8,69.2,8
	c-0.3,0.1-0.6,0.1-1,0c-0.3,0-0.6-0.2-0.9-0.3c-0.3-0.2-0.6-0.4-0.8-0.6c-0.1-0.1-0.2-0.2-0.2-0.3c-0.1-0.1-0.1-0.2-0.2-0.2
	c0,0,0,0,0,0c0,0,0,0,0,0c0,0,0,0,0,0c0,0,0,0,0,0s0,0,0,0c-0.1-0.1-0.1-0.2-0.1-0.2c0-0.1,0-0.1,0.1-0.2c0.3-0.2,0.5-0.4,0.8-0.7
	c0.1,0,0.1-0.1,0.2-0.1C67.2,5.5,67.2,5.5,67.3,5.6C67.3,5.5,67.3,5.5,67.3,5.6"/>
<path class="st0" d="M80.4,6.9c-0.1,0.3-0.2,0.6-0.4,0.9c-0.1,0.3-0.3,0.5-0.5,0.7c-0.2,0.2-0.4,0.4-0.7,0.5
	c-0.2,0.2-0.5,0.3-0.8,0.4c-0.3,0.1-0.5,0.1-0.8,0.1c-0.3,0-0.6,0-0.9-0.1c-0.7-0.2-1.3-0.3-2-0.4c0,0-0.1,0-0.1-0.1
	c0,0,0-0.1,0-0.2c0.4-2.1,0.9-4.2,1.3-6.4c0-0.1,0-0.1,0.1-0.1c0,0,0.1,0,0.2,0c0.7,0.1,1.4,0.3,2.2,0.5c0.3,0.1,0.6,0.2,0.9,0.3
	c0.3,0.1,0.5,0.3,0.7,0.5c0.2,0.2,0.4,0.4,0.5,0.7c0.2,0.3,0.3,0.5,0.3,0.8c0.1,0.3,0.1,0.6,0.1,0.9C80.5,6.3,80.5,6.6,80.4,6.9
	 M76.9,4.2c-0.3,1.2-0.5,2.3-0.8,3.5c0.1,0,0.2,0.1,0.3,0.1c0.1,0,0.1,0,0.2,0c0.1,0,0.1,0,0.2,0c0.2,0,0.4,0,0.6,0
	c0.2,0,0.4-0.1,0.6-0.2c0.2-0.1,0.3-0.3,0.4-0.4s0.2-0.4,0.3-0.6c0.1-0.3,0.1-0.5,0-0.7c0-0.2-0.1-0.4-0.2-0.6
	c-0.1-0.2-0.3-0.4-0.5-0.5c-0.2-0.1-0.4-0.2-0.6-0.3C77.3,4.3,77.1,4.3,76.9,4.2"/>
<path class="st0" d="M82.3,4.1c0-0.1,0-0.1,0.1-0.1c0,0,0.1,0,0.2,0c1.4,0.4,2.9,0.8,4.3,1.3c0.1,0,0.1,0.1,0.1,0.1
	c0,0.1,0,0.1,0,0.2c-0.1,0.4-0.2,0.7-0.4,1.1c0,0.1,0,0.1-0.1,0.1c0,0-0.1,0-0.2,0c-0.9-0.3-1.8-0.6-2.8-0.8
	c-0.1,0.4-0.2,0.7-0.3,1.1c0.7,0.2,1.4,0.4,2.1,0.6c0.1,0,0.1,0,0.1,0.1c0,0,0,0.1,0,0.1c-0.1,0.3-0.2,0.6-0.3,1c0,0,0,0.1-0.1,0.1
	c0,0-0.1,0-0.2,0c-0.7-0.2-1.4-0.4-2.1-0.6c-0.1,0.4-0.2,0.8-0.3,1.1c0.9,0.3,1.8,0.6,2.8,0.8c0.1,0,0.2,0.1,0.1,0.3
	c-0.1,0.4-0.2,0.7-0.4,1.1c0,0,0,0.1-0.1,0.1c0,0.1-0.1,0.1-0.2,0.1c-1.4-0.4-2.7-0.8-4.1-1.2c-0.1,0-0.1,0-0.1-0.1c0,0,0-0.1,0-0.2
	C81.2,8.3,81.8,6.2,82.3,4.1"/>
<path class="st0" d="M31.9,14.9c0,0,0.1,0.1,0.1,0.1c0,0.1,0,0.1,0,0.2l-0.7,1.2c0,0.1-0.1,0.1-0.1,0.1c0,0-0.1,0-0.1,0
	c-0.1-0.1-0.3-0.2-0.5-0.3c-0.2-0.1-0.4-0.1-0.6-0.1c-0.2,0-0.5,0.1-0.7,0.2c-0.2,0.1-0.4,0.2-0.5,0.4c-0.1,0.2-0.3,0.4-0.3,0.6
	c-0.1,0.2-0.1,0.5-0.1,0.8c0,0.3,0,0.5,0.1,0.8c0.1,0.2,0.2,0.4,0.3,0.6s0.3,0.3,0.5,0.4C29.5,20,29.8,20,30,20c0.2,0,0.4,0,0.6-0.1
	s0.3-0.2,0.5-0.3c0.1,0,0.1-0.1,0.1,0c0,0,0.1,0,0.1,0.1l0.8,1.2c0,0.1,0,0.1,0,0.2c0,0.1-0.1,0.1-0.1,0.1c-0.3,0.2-0.6,0.4-0.9,0.5
	c-0.3,0.1-0.7,0.2-1,0.2c-0.3,0-0.6,0-0.9-0.1c-0.3-0.1-0.6-0.2-0.8-0.4s-0.5-0.4-0.7-0.6c-0.2-0.2-0.4-0.5-0.5-0.8
	c-0.1-0.3-0.3-0.6-0.3-0.9c-0.1-0.3-0.1-0.7-0.1-1c0-0.4,0-0.7,0.1-1c0.1-0.3,0.2-0.6,0.3-0.9c0.1-0.3,0.3-0.5,0.5-0.8
	c0.2-0.2,0.4-0.4,0.7-0.6c0.3-0.2,0.5-0.3,0.8-0.4c0.3-0.1,0.6-0.1,0.9-0.1c0.4,0,0.7,0.1,1,0.2C31.4,14.6,31.6,14.7,31.9,14.9"/>
<path class="st0" d="M32.4,18.1c0-0.4,0-0.7,0.1-1c0.1-0.3,0.2-0.6,0.3-0.9c0.1-0.3,0.3-0.5,0.5-0.8c0.2-0.2,0.4-0.4,0.7-0.6
	c0.3-0.2,0.5-0.3,0.8-0.4c0.3-0.1,0.6-0.1,0.9-0.1c0.3,0,0.6,0,0.9,0.1c0.3,0.1,0.6,0.2,0.8,0.4c0.3,0.2,0.5,0.4,0.7,0.6
	c0.2,0.2,0.4,0.5,0.5,0.8c0.1,0.3,0.3,0.6,0.3,0.9c0.1,0.3,0.1,0.7,0.1,1s0,0.7-0.1,1c-0.1,0.3-0.2,0.6-0.3,0.9
	c-0.1,0.3-0.3,0.5-0.5,0.8c-0.2,0.2-0.4,0.4-0.7,0.6c-0.2,0.2-0.5,0.3-0.8,0.4c-0.3,0.1-0.6,0.1-0.9,0.1c-0.3,0-0.6,0-0.9-0.1
	c-0.3-0.1-0.6-0.2-0.8-0.4s-0.5-0.4-0.7-0.6c-0.2-0.2-0.4-0.5-0.5-0.8s-0.3-0.6-0.3-0.9C32.5,18.8,32.4,18.4,32.4,18.1 M34.2,18.1
	c0,0.3,0,0.5,0.1,0.8c0.1,0.2,0.2,0.4,0.3,0.6c0.1,0.2,0.3,0.3,0.5,0.4c0.2,0.1,0.4,0.2,0.7,0.2c0.2,0,0.5,0,0.7-0.2
	c0.2-0.1,0.4-0.2,0.5-0.4c0.1-0.2,0.3-0.4,0.3-0.6c0.1-0.2,0.1-0.5,0.1-0.8c0-0.3,0-0.5-0.1-0.8c-0.1-0.2-0.2-0.5-0.3-0.6
	c-0.1-0.2-0.3-0.3-0.5-0.4c-0.2-0.1-0.4-0.2-0.7-0.2c-0.2,0-0.5,0.1-0.7,0.2c-0.2,0.1-0.4,0.2-0.5,0.4c-0.1,0.2-0.3,0.4-0.3,0.6
	C34.2,17.6,34.2,17.8,34.2,18.1"/>
<path class="st0" d="M40.3,14.6c0-0.1,0-0.1,0-0.2c0,0,0.1-0.1,0.1-0.1h1.4c0,0,0.1,0,0.1,0c0,0,0.1,0.1,0.1,0.1
	c0.4,0.7,0.7,1.4,1.1,2c0.4,0.7,0.7,1.3,1.1,2v-4c0-0.1,0-0.1,0.1-0.1c0,0,0.1,0,0.1,0h1.3c0.1,0,0.1,0,0.2,0.1s0.1,0.1,0.1,0.2v7
	c0,0.1,0,0.1-0.1,0.1c0,0-0.1,0-0.1,0h-1.4c0,0-0.1,0-0.1,0c0,0-0.1-0.1-0.1-0.1c-0.4-0.7-0.8-1.5-1.2-2.2c-0.4-0.7-0.8-1.4-1.2-2.2
	v4.3c0,0.1,0,0.1,0,0.2c0,0-0.1,0.1-0.2,0.1h-1.3c-0.1,0-0.1,0-0.1-0.1c0,0,0-0.1,0-0.2V14.6z"/>
<path class="st0" d="M48.3,19.4c0,0,0.1,0.1,0.2,0.2c0.1,0.1,0.2,0.2,0.3,0.2c0.1,0.1,0.3,0.2,0.4,0.3c0.1,0.1,0.3,0.1,0.5,0.1
	c0.1,0,0.3,0,0.4-0.1c0.1,0,0.2-0.1,0.2-0.2c0.1-0.1,0.1-0.1,0.1-0.2c0-0.1,0-0.2,0-0.3c0-0.1,0-0.2-0.1-0.3S50.2,19,50.1,19
	c-0.1-0.1-0.2-0.1-0.3-0.2c-0.1,0-0.2-0.1-0.3-0.1c-0.4-0.1-0.7-0.3-0.9-0.4c-0.3-0.2-0.5-0.3-0.7-0.5c-0.2-0.2-0.3-0.4-0.4-0.7
	c-0.1-0.2-0.1-0.5-0.1-0.8c0-0.3,0.1-0.6,0.2-0.8c0.1-0.3,0.3-0.5,0.5-0.6c0.2-0.2,0.4-0.3,0.7-0.4c0.3-0.1,0.6-0.1,1-0.1
	c0.3,0,0.5,0,0.8,0.1c0.2,0.1,0.5,0.2,0.7,0.3c0.1,0.1,0.2,0.1,0.3,0.2c0.1,0.1,0.2,0.1,0.2,0.2c0.1,0.1,0.1,0.1,0.2,0.2
	c0,0.1,0.1,0.1,0.1,0.2s0,0.1,0,0.1c0,0,0,0.1-0.1,0.1l-0.7,0.8c-0.1,0.1-0.1,0.1-0.2,0.1c0,0-0.1,0-0.1,0c0,0-0.1-0.1-0.1-0.1l0,0
	c-0.1-0.1-0.1-0.1-0.2-0.2c-0.1-0.1-0.1-0.1-0.2-0.2c-0.1,0-0.2-0.1-0.3-0.1c-0.1,0-0.2,0-0.3,0c-0.1,0-0.2,0-0.3,0
	c-0.1,0-0.2,0-0.2,0.1c-0.1,0-0.1,0.1-0.2,0.2c0,0.1-0.1,0.1-0.1,0.2c0,0.1,0,0.2,0.1,0.2c0,0.1,0.1,0.1,0.2,0.2
	c0.1,0.1,0.2,0.1,0.3,0.2c0.1,0.1,0.3,0.1,0.4,0.2c0.3,0.1,0.6,0.2,0.9,0.4c0.3,0.1,0.5,0.3,0.7,0.5c0.2,0.2,0.3,0.4,0.4,0.6
	c0.1,0.2,0.2,0.5,0.2,0.9c0,0.4-0.1,0.7-0.2,1c-0.1,0.3-0.3,0.6-0.5,0.8s-0.5,0.4-0.8,0.5s-0.6,0.2-1,0.2c-0.3,0-0.7-0.1-1-0.2
	c-0.3-0.1-0.6-0.3-0.9-0.6c-0.1-0.1-0.2-0.2-0.3-0.3c-0.1-0.1-0.1-0.2-0.2-0.2l0,0c0,0,0,0,0,0c0,0,0,0,0,0c0,0,0,0,0,0c0,0,0,0,0,0
	c-0.1-0.1-0.1-0.2-0.1-0.2c0-0.1,0-0.1,0.1-0.2l0.8-0.8c0.1,0,0.1-0.1,0.1-0.1c0,0,0.1,0,0.1,0C48.2,19.3,48.3,19.4,48.3,19.4"/>
<path class="st0" d="M52.9,14.6c0-0.1,0-0.1,0.1-0.2c0,0,0.1-0.1,0.1-0.1h4.7c0.1,0,0.1,0,0.1,0.1c0,0,0.1,0.1,0.1,0.2v1.2
	c0,0.1,0,0.1-0.1,0.2s-0.1,0.1-0.2,0.1h-1.5v5.5c0,0.1,0,0.1-0.1,0.2c0,0-0.1,0.1-0.1,0.1h-1.3c0,0-0.1,0-0.1-0.1
	c0,0-0.1-0.1-0.1-0.2v-5.5h-1.5c-0.1,0-0.1,0-0.1-0.1c0,0-0.1-0.1-0.1-0.2V14.6z"/>
<path class="st0" d="M59.1,14.6c0-0.1,0-0.1,0-0.2c0,0,0.1-0.1,0.1-0.1h2.8c0.3,0,0.6,0.1,0.8,0.2c0.3,0.1,0.5,0.3,0.7,0.5
	c0.2,0.2,0.4,0.5,0.5,0.8c0.1,0.3,0.2,0.6,0.2,0.9c0,0.2,0,0.4-0.1,0.6c-0.1,0.2-0.1,0.4-0.2,0.6c-0.1,0.2-0.2,0.3-0.3,0.5
	c-0.1,0.1-0.3,0.3-0.4,0.4l1.1,2.4c0,0,0,0.1,0.1,0.2c0,0.1,0,0.1,0,0.2c0,0.1,0,0.1,0,0.1c0,0-0.1,0-0.1,0h-1.5c0,0-0.1,0-0.1-0.1
	c0,0-0.1-0.1-0.1-0.1l-1.1-2.3h-0.7v2.2c0,0.1-0.1,0.2-0.2,0.2h-1.3c-0.1,0-0.1,0-0.1-0.1c0,0-0.1-0.1-0.1-0.2V14.6z M62.6,16.8
	c0-0.1,0-0.2,0-0.3c0-0.1-0.1-0.2-0.1-0.3c-0.1-0.1-0.1-0.2-0.2-0.2C62.1,16,62,16,61.9,15.9c-0.1,0-0.2,0-0.2,0c-0.1,0-0.2,0-0.2,0
	h-0.6v1.8h0.8c0.1,0,0.1,0,0.1,0c0,0,0.1,0,0.1,0c0.1,0,0.2,0,0.3-0.1c0.1-0.1,0.1-0.1,0.2-0.2c0.1-0.1,0.1-0.2,0.1-0.3
	C62.6,17,62.6,16.9,62.6,16.8"/>
<path class="st0" d="M67,18.8c0,0.2,0,0.5,0.1,0.6c0.1,0.2,0.1,0.3,0.2,0.4c0.1,0.1,0.2,0.2,0.3,0.2c0.1,0,0.3,0.1,0.4,0.1
	c0.1,0,0.3,0,0.4-0.1c0.1-0.1,0.2-0.1,0.3-0.3c0.1-0.1,0.2-0.3,0.2-0.4c0.1-0.2,0.1-0.4,0.1-0.6v-4.2c0-0.1,0-0.1,0.1-0.2
	c0,0,0.1-0.1,0.1-0.1h1.3c0.1,0,0.1,0,0.2,0.1c0,0,0.1,0.1,0.1,0.2v4.2c0,0.6-0.1,1.1-0.2,1.5c-0.2,0.4-0.4,0.7-0.6,1
	c-0.3,0.2-0.6,0.4-0.9,0.5c-0.3,0.1-0.7,0.2-1.1,0.2c-0.4,0-0.7-0.1-1.1-0.2c-0.3-0.1-0.6-0.3-0.9-0.5c-0.3-0.2-0.5-0.6-0.6-1
	c-0.2-0.4-0.2-0.9-0.2-1.4v-4.2c0-0.1,0-0.1,0.1-0.2c0,0,0.1-0.1,0.1-0.1h1.3c0,0,0.1,0,0.1,0.1c0,0,0.1,0.1,0.1,0.2V18.8z"/>
<path class="st0" d="M72.2,14.6c0-0.1,0-0.1,0-0.2c0,0,0.1-0.1,0.1-0.1h1.3c0,0,0.1,0,0.1,0.1c0.1,0,0.1,0.1,0.1,0.2v7
	c0,0.1-0.1,0.2-0.2,0.2h-1.3c-0.1,0-0.2-0.1-0.2-0.2V14.6z"/>
<path class="st0" d="M75.3,14.6c0-0.1,0-0.1,0-0.2c0,0,0.1-0.1,0.1-0.1h2.8c0.3,0,0.6,0.1,0.8,0.2c0.3,0.1,0.5,0.3,0.7,0.5
	c0.2,0.2,0.4,0.5,0.5,0.8c0.1,0.3,0.2,0.6,0.2,0.9c0,0.2,0,0.4-0.1,0.6c-0.1,0.2-0.1,0.4-0.2,0.6c-0.1,0.2-0.2,0.3-0.3,0.5
	c-0.1,0.1-0.3,0.3-0.4,0.4l1.1,2.4c0,0,0,0.1,0.1,0.2c0,0.1,0,0.1,0,0.2c0,0.1,0,0.1,0,0.1c0,0-0.1,0-0.1,0H79c0,0-0.1,0-0.1-0.1
	c0,0-0.1-0.1-0.1-0.1l-1.1-2.3H77v2.2c0,0.1-0.1,0.2-0.2,0.2h-1.3c-0.1,0-0.1,0-0.1-0.1c0,0-0.1-0.1-0.1-0.2V14.6z M78.8,16.8
	c0-0.1,0-0.2,0-0.3c0-0.1-0.1-0.2-0.1-0.3c-0.1-0.1-0.1-0.2-0.2-0.2c-0.1-0.1-0.2-0.1-0.3-0.1c-0.1,0-0.2,0-0.2,0
	c-0.1,0-0.2,0-0.2,0H77v1.8h0.8c0.1,0,0.1,0,0.1,0c0,0,0.1,0,0.1,0c0.1,0,0.2,0,0.3-0.1c0.1-0.1,0.2-0.1,0.2-0.2
	c0.1-0.1,0.1-0.2,0.1-0.3C78.7,17,78.8,16.9,78.8,16.8"/>
<path class="st0" d="M42.3,89.8c-0.1,0-0.1,0-0.2,0.1c0,0,0,0-0.1,0.1L42,90c-0.3,0.3-0.6,0.6-0.9,0.9c0,0-0.1,0.1-0.1,0.1
	c0,0,0,0-0.1,0l-0.1,0.1l0-0.2c0-0.2,0.1-0.3,0.2-0.4c0.3-0.4,0.6-0.8,0.9-1.2c0.3-0.4,0.5-0.7,0.8-1.1l0,0c0.1-0.1,0.1-0.2,0.2-0.3
	c0,0,0-0.1,0-0.1c0,0-0.1,0-0.1,0c-0.3,0-0.4,0-0.6,0.2c0,0.1-0.1,0.1-0.1,0.2c0,0,0,0.1-0.1,0.1l-0.1,0.1l-0.1-0.1
	c-0.3-0.4-0.5-0.5-0.9-0.4c-0.1,0.1-0.3,0.1-0.4,0.2c-0.5,0.3-0.9,0.7-1.2,1.1c-0.3,0.4-0.7,0.8-1,1.1c-0.2,0.1-0.3,0.3-0.5,0.5
	c-0.1,0.1-0.2,0.1-0.3,0.2c0,0-0.1,0.1-0.1,0.1l-0.1,0l-0.1-0.1l0,0c0-0.1,0.1-0.1,0.1-0.2c0.1-0.1,0.1-0.3,0.2-0.4l0.2-0.4
	c0.5-0.8,1.1-1.6,1.6-2.4c0.4-0.6,0.9-1.2,1.3-1.8c0.2-0.3,0.4-0.6,0.7-0.9c0.1-0.1,0.2-0.3,0.3-0.4c0.1-0.1,0-0.2,0-0.2
	c-0.2-0.1-0.5,0-0.6,0.1c-0.6,0.8-1.2,1.6-1.7,2.5l-1.1,1.6l-0.1-0.1c-0.2-0.3-0.4-0.3-0.8-0.2c-0.2,0.1-0.3,0.1-0.4,0.2
	c-0.7,0.4-1.3,1-1.8,1.7c-0.3,0.6-0.8,1-1.3,1.4c-0.1,0.1-0.2,0.1-0.2,0.1c0,0-0.1,0-0.1,0.1l-0.1,0.1l0-0.1c0-0.2,0.1-0.3,0.2-0.5
	c0.2-0.4,0.5-0.8,0.8-1.2c0.2-0.3,0.5-0.7,0.7-1c0.1-0.2,0.3-0.4,0.4-0.6c0.1-0.1,0.1-0.2,0.1-0.2c0.1-0.1,0-0.2,0-0.2
	c-0.1,0-0.1-0.1-0.2,0c0,0-0.1,0.1-0.1,0.1L35.2,88L35.1,88c-0.2-0.3-0.5-0.3-0.9-0.2c-0.1,0.1-0.3,0.1-0.4,0.2
	c-0.6,0.3-1.1,0.8-1.6,1.5c-0.3,0.5-0.8,0.9-1.2,1.2l-0.2,0.2c-0.1,0.1-0.1,0.1-0.2,0.1c0,0,0,0-0.1,0.1l-0.1,0.1l0-0.1
	c0-0.1,0-0.2,0.1-0.3c0.1-0.1,0.2-0.3,0.3-0.4c0.1-0.2,0.2-0.3,0.3-0.5l0.1-0.1c0.2-0.3,0.4-0.7,0.6-1c0.1-0.1,0.1-0.3,0.1-0.5
	c0-0.1,0-0.2-0.1-0.2c-0.1,0-0.1-0.1-0.2,0c-0.3,0.1-0.5,0.2-0.7,0.4c-0.1,0.1-0.2,0.2-0.3,0.3l-0.3,0.3l0-0.2c0-0.1,0-0.1,0-0.2
	c0-0.1,0-0.2,0-0.2c0-0.1,0-0.1-0.1-0.2c0,0-0.1,0-0.2,0c-0.4,0.1-0.7,0.3-0.9,0.5c-0.2,0.2-0.4,0.4-0.6,0.7
	c-0.2,0.3-0.5,0.5-0.7,0.8c-0.1,0.1-0.2,0.2-0.3,0.3c-0.1,0.1-0.3,0.3-0.4,0.4c-0.1,0.1-0.3,0.3-0.5,0.4c-0.1,0.1-0.3,0.1-0.4,0
	c-0.1-0.1-0.2-0.2-0.2-0.4c0-0.1,0-0.2,0-0.3c0,0,0-0.1,0-0.1l0,0l0,0c0.9-0.3,1.5-0.8,2-1.7c0.1-0.3,0.1-0.5,0-0.7
	c-0.2-0.2-0.4-0.2-0.7-0.2c-0.1,0-0.2,0.1-0.2,0.1c-0.1,0-0.1,0.1-0.2,0.1c-0.2,0.1-0.4,0.2-0.5,0.4c-0.5,0.5-0.8,1.2-1,1.9
	c-0.1,0.3-0.1,0.6,0,0.8c0,0.3,0.2,0.5,0.4,0.6c0.2,0.1,0.5,0,0.7-0.1c0.3-0.2,0.5-0.4,0.8-0.8c0.3-0.3,0.6-0.6,0.9-1
	c0.2-0.2,0.3-0.3,0.5-0.5c0.1-0.1,0.1-0.1,0.2-0.2l0.3-0.3l-0.1,0.3c0,0.2-0.1,0.3-0.2,0.4l-0.2,0.3c-0.3,0.4-0.5,0.8-0.8,1.2
	c-0.1,0.1-0.1,0.2-0.2,0.4c-0.1,0.2-0.1,0.3,0,0.3c0.1,0.1,0.2,0,0.3-0.1c0.2-0.3,0.5-0.5,0.8-0.9c0.2-0.3,0.5-0.6,0.7-0.8
	c0.2-0.3,0.4-0.5,0.7-0.8c0-0.1,0.1-0.1,0.1-0.1c0,0,0,0,0.1-0.1l0.2-0.1l0,0.2c0,0.1-0.1,0.2-0.1,0.3l0,0c-0.1,0.1-0.2,0.2-0.2,0.4
	c-0.2,0.3-0.4,0.6-0.6,1c-0.1,0.2-0.2,0.5-0.2,0.7c0,0.1,0,0.2,0.1,0.2c0.1,0.1,0.1,0.1,0.3,0.1c0.3,0,0.5-0.2,0.8-0.4
	c0.1-0.1,0.1-0.1,0.2-0.2l0.2-0.2l0.1,0.2c0,0,0,0,0,0.1c0.1,0.3,0.2,0.5,0.3,0.6c0.2,0.1,0.4,0,0.7-0.1c0.1-0.1,0.2-0.1,0.3-0.2
	c0,0,0.1-0.1,0.1-0.1l0.1-0.1l0.1,0.1c0,0,0,0.1,0,0.1c0,0.2,0.1,0.3,0.2,0.3c0.1,0,0.2,0,0.3,0c0.2-0.1,0.3-0.2,0.5-0.3l0.1,0
	c0.1-0.1,0.2-0.2,0.3-0.2c0,0,0.1-0.1,0.2-0.1l0.1-0.1l0,0.3c0,0.1,0,0.1,0,0.2c0,0.2,0.1,0.4,0.3,0.5c0.2,0.1,0.4,0.1,0.6,0
	c0.2-0.1,0.4-0.2,0.5-0.4c0,0,0.1-0.1,0.1-0.1c0.1-0.1,0.1-0.1,0.2-0.2c0,0,0.1-0.1,0.1-0.1l0.1-0.1l0,0.1c0,0,0,0,0,0
	c0,0,0,0,0,0.1c0,0.2,0.1,0.4,0.2,0.4c0.1,0.1,0.3,0,0.5-0.1c0.2-0.1,0.3-0.2,0.5-0.4C38,91,38,91,38.1,90.9c0,0,0.1-0.1,0.1-0.1
	l0.2-0.2l0,0.3c0,0.3,0.2,0.5,0.3,0.6c0.2,0.1,0.4,0,0.7-0.1c0.1,0,0.1-0.1,0.2-0.1c0,0,0.1,0,0.1-0.1l0.3-0.2l0,0.2
	c0,0,0,0.1,0,0.1c0.1,0.3,0.2,0.4,0.5,0.3c0.1,0,0.3-0.1,0.4-0.2c0.5-0.4,0.8-0.9,1.2-1.3l0,0C42.3,90,42.4,89.9,42.3,89.8
	C42.4,89.8,42.4,89.8,42.3,89.8 M26.7,89.8c0.3-0.5,0.7-1.1,1.4-1.5l0.2-0.1l-0.1,0.2c-0.3,0.6-0.7,1.1-1.4,1.5L26.6,90L26.7,89.8z
	 M32.2,91.3l-0.1,0L32.2,91.3c0.1-1,1.5-2.7,2.4-3l0.1,0l0,0.1C34.7,89,32.9,91.1,32.2,91.3 M35.5,91.2L35.5,91.2L35.5,91.2
	c-0.1-0.9,1.3-2.5,2.1-2.6l0.1,0l0,0.1C37.7,89.4,36.3,91,35.5,91.2 M39.7,90.8C39.7,90.8,39.7,90.8,39.7,90.8
	c-0.2,0.1-0.3,0.2-0.5,0.2h0l-0.1,0l0-0.1c0.2-0.9,1.4-2.4,2.2-2.6l0.1,0l0,0.1c0,0.2,0,0.5-0.1,0.7C40.9,89.7,40.4,90.3,39.7,90.8"
	/>
<path class="st0" d="M19.6,84.8c0.3-0.1,0.6-0.3,1.1-0.2l0.1,0l0,0.1c0,0.1,0,0.1,0,0.2c0,0.1-0.1,0.3-0.1,0.4
	c-0.2,0.3-0.4,0.6-0.7,0.9c-0.2,0.2-0.4,0.3-0.6,0.4c-0.1,0.1-0.2,0.1-0.3,0.2C19,86.8,19,86.9,19,86.9c0,0,0.1,0.1,0.1,0.1
	c0.2,0,0.3,0,0.4,0c0.3-0.1,0.6-0.2,0.8-0.3c0.8-0.4,1.3-1,1.5-1.8c0.1-0.4,0-0.7-0.3-1.1c-0.2-0.2-0.5-0.3-0.8-0.4
	c-0.1,0-0.2,0-0.2,0c-0.4,0-0.8,0.1-1.2,0.3c-0.6,0.3-1.2,0.8-1.8,1.4c-0.4,0.4-0.7,0.8-0.8,1.3c-0.2,0.6-0.1,1,0.3,1.4
	c0,0,0,0.1,0.1,0.1c0,0,0,0,0,0l0,0.1l-0.2,0.1c-0.1,0-0.1,0.1-0.2,0.1c-1.1,0.5-2,1.2-2.6,2c-0.4,0.5-0.6,1-0.7,1.5
	c-0.1,0.8,0.3,1.6,1,1.9c0.7,0.3,1.4,0.3,2,0c0.9-0.4,1.6-1,2.2-2c0.2-0.3,0.3-0.6,0.4-0.8l0-0.1c0.1-0.1,0.1-0.3,0.1-0.5
	c0-0.1,0-0.2-0.1-0.2c-0.1,0-0.1,0-0.2,0.1c-0.1,0.1-0.1,0.2-0.2,0.3c-0.3,1-1,1.7-2,2.3c-0.5,0.3-1,0.3-1.4,0.2
	c-0.4-0.1-0.6-0.3-0.7-0.6c-0.1-0.3-0.1-0.6,0.1-0.9c0.2-0.3,0.4-0.7,0.7-1c0.5-0.6,1.2-1.1,2.1-1.6c0.3-0.2,0.7-0.3,1-0.4
	c0.2-0.1,0.4-0.1,0.6-0.2c0.1-0.1,0.2-0.1,0.2-0.1c0,0,0,0,0,0c0,0-0.1,0-0.1,0c0,0,0,0-0.1,0c-0.1,0-0.2,0-0.2,0
	c-0.1,0-0.1,0-0.2,0c0,0-0.1,0-0.1,0c-0.1,0-0.3,0-0.4-0.1c-0.3-0.1-0.5-0.2-0.5-0.4c-0.1-0.2,0-0.4,0.1-0.7
	c0.1-0.2,0.3-0.4,0.4-0.6C18.4,85.5,19,85.1,19.6,84.8"/>
<path class="st0" d="M25.1,91.1c0.3-0.4,0.5-0.8,0.6-1.3c0.1-0.3,0.1-0.5,0.2-0.8c0.1-0.2,0.1-0.5,0.2-0.7c0.1-0.5,0.3-0.8,0.6-1.1
	c0,0,0.1-0.1,0.1-0.1c0-0.1,0-0.2,0-0.2c0-0.1-0.1-0.1-0.2-0.1h0c-0.2,0-0.4,0.1-0.5,0.3c-0.1,0.2-0.3,0.4-0.4,0.6
	c-0.1,0.1-0.1,0.2-0.2,0.3c0,0,0,0.1-0.1,0.1c0,0.1-0.1,0.2-0.2,0.3c-0.7,0.7-1.5,1.6-2.3,2.4c-0.2,0.2-0.3,0.3-0.5,0.4
	c-0.1,0.1-0.2,0.1-0.2,0.2l0,0L22,91.2l0.6-0.9c0.1-0.2,0.2-0.3,0.3-0.5c0.3-0.4,0.5-0.8,0.8-1.2c0.1-0.2,0.2-0.3,0.2-0.5
	c0-0.1,0-0.2,0-0.2c0,0-0.1-0.1-0.2-0.1c-0.2,0-0.4,0.1-0.6,0.2c0,0-0.1,0-0.1,0.1c-0.1,0-0.1,0.1-0.2,0.1c0,0-0.1,0-0.1,0.1
	l-0.1,0.1l0-0.1c0-0.2-0.1-0.4-0.2-0.5c-0.1-0.1-0.2-0.1-0.3,0c-0.4,0.2-0.7,0.5-1.1,1c0,0,0,0.1,0,0.1c0,0,0.1,0,0.2,0
	c0.1,0,0.1-0.1,0.1-0.1c0,0,0,0,0.1-0.1l0.2-0.1l-0.1,0.2c0,0.1-0.1,0.3-0.2,0.3l-0.4,0.6c-0.3,0.5-0.7,1-1,1.5
	c-0.1,0.1-0.2,0.3-0.2,0.4c0,0.1,0,0.1,0,0.1c0,0,0.1,0,0.2,0c0.2-0.1,0.4-0.2,0.5-0.4c0.1-0.2,0.2-0.3,0.4-0.5
	c0.1-0.2,0.3-0.4,0.4-0.5c0.4-0.5,0.9-1,1.4-1.6c0,0,0.1-0.1,0.1-0.1c0,0,0,0,0.1,0l0.2-0.1l-0.1,0.2c-0.1,0.1-0.1,0.3-0.2,0.4
	c0,0,0,0.1-0.1,0.1l-0.1,0.2c-0.2,0.4-0.5,0.7-0.7,1.1c-0.1,0.2-0.2,0.4-0.2,0.6l0,0c0,0.1-0.1,0.3,0.1,0.5c0.2,0.2,0.4,0.1,0.5,0
	c0.2-0.1,0.4-0.2,0.6-0.4l0.1-0.1c0.1,0,0.1-0.1,0.2-0.2c0,0,0.1-0.1,0.1-0.1l0.1-0.1l0,0.2c0,0,0,0.1,0,0.1
	c0.1,0.2,0.2,0.4,0.3,0.5c0.2,0.1,0.4,0.1,0.6,0C24.5,91.6,24.8,91.4,25.1,91.1 M23.9,91.4L23.9,91.4L23.9,91.4
	c-0.3-0.3-0.3-0.7,0-0.9c0.1-0.1,0.3-0.3,0.5-0.1c0.1,0,0.1,0.1,0.1,0c0,0,0,0,0,0c0.1-0.1,0-0.2-0.1-0.3c0,0-0.1,0-0.2-0.1
	c0,0-0.1,0-0.1,0l-0.1,0l1.1-1l0,0.2C25.3,89.9,24.5,91.2,23.9,91.4"/>
<path class="st0" d="M43,90.8c-0.2,0.1-0.3,0.2-0.4,0.4c-0.1,0.1,0,0.2,0.1,0.4l0.1,0.1l-0.5,0.5l0,0c0,0,0,0,0,0c0.1,0,0.1,0,0.1,0
	c0.4-0.2,0.7-0.5,0.9-1c0.1-0.2,0.1-0.3,0-0.4C43.3,90.7,43.1,90.7,43,90.8"/>
<path class="st0" d="M51.1,90c0.3-0.6,0.3-0.9-0.1-1.4l-0.1-0.1l0.2-0.1c0.1,0,0.2-0.1,0.3-0.1c0.8-0.4,1.6-1,2.1-1.8
	c0.2-0.3,0.4-0.7,0.5-1c0.1-0.4,0.1-0.8-0.1-1.1c-0.2-0.3-0.5-0.5-1-0.6c-0.7-0.1-1.3,0-2.1,0.3c-1.5,0.6-2.8,1.7-3.7,3.1
	c-0.4,0.5-0.6,1-0.7,1.5c0,0.2,0,0.4,0,0.6c0,0.1,0.1,0.1,0.1,0.2c0.1,0,0.2,0,0.2-0.1c0.1-0.1,0.1-0.2,0.1-0.3
	c0.1-0.5,0.3-0.9,0.7-1.4c0.7-1,1.7-1.8,2.8-2.4c0.4-0.2,0.8-0.4,1.2-0.6c0.3-0.1,0.6-0.1,0.9-0.1c0.2,0,0.3,0.1,0.4,0.2
	C53,84.8,53,85,53,85.2c0,0.4-0.2,0.8-0.4,1.1c-0.8,1.1-1.8,1.9-3,2.2c-0.1,0-0.2,0-0.3,0c-0.1,0-0.1,0-0.2,0l-0.2,0l0.1-0.1
	c0-0.1,0.1-0.1,0.1-0.1c0.1-0.1,0.1-0.1,0.1-0.2c0.1-0.1,0.2-0.3,0.4-0.4c0.2-0.3,0.5-0.6,0.7-0.8c0,0,0,0,0,0
	c0.1-0.1,0.1-0.2,0.1-0.2c0,0-0.1,0-0.1,0c-0.1,0-0.1,0.1-0.2,0.1c0,0,0,0,0,0c-0.4,0.3-0.7,0.6-1,0.9c-1.1,1.1-1.8,2.3-2.4,3.4
	c-0.1,0.3-0.2,0.6-0.3,0.8c-0.1,0.3-0.1,0.5,0.1,0.7c0.1,0.2,0.3,0.3,0.6,0.4c0.4,0.1,0.9,0,1.4-0.3C49.6,92,50.4,91.1,51.1,90
	 M47.2,92.3C47.2,92.3,47.2,92.3,47.2,92.3c-0.1,0-0.1,0-0.1,0c0,0,0,0-0.1,0H47v-0.1c0,0,0-0.1,0-0.1c0-0.1,0-0.2,0-0.2
	c0-0.2,0.1-0.4,0.2-0.6c0.4-0.7,0.8-1.4,1.4-2.2l0,0l0.3,0c0.1,0,0.3,0,0.4,0c0.1,0,0.1,0,0.2,0c0.1,0,0.3,0,0.4,0
	c0.1,0,0.2,0.1,0.3,0.2c0.1,0.1,0.1,0.2,0,0.3c-0.1,0.2-0.1,0.3-0.2,0.5c-0.6,1-1.5,1.7-2.4,2.1C47.4,92.2,47.3,92.3,47.2,92.3"/>
<path class="st0" d="M54.8,93.4c0.9-1.4,1.7-2.9,2.6-4.3l0.5-0.8c0.1-0.3,0.1-0.3,0-0.3c-0.1,0-0.1-0.1-0.3,0.1
	c-0.1,0.2-0.3,0.3-0.4,0.5c-0.4,0.4-0.8,0.9-1.2,1.3c-0.4,0.4-0.7,0.7-1.1,1l-0.3,0.2c-0.1,0.1-0.3,0.3-0.6,0.2l-0.1,0l0-0.1
	c0,0,0-0.1,0-0.1c0-0.1,0-0.1,0-0.2c0.1-0.2,0.2-0.4,0.3-0.5c0.3-0.5,0.7-0.9,1-1.4c0.2-0.2,0.3-0.4,0.5-0.6l0,0
	c0-0.1,0.1-0.1,0.1-0.2c0-0.1,0-0.2,0-0.2c0,0-0.1-0.1-0.2,0c-0.1,0-0.2,0.1-0.3,0.1c-0.1,0-0.1,0.1-0.2,0.1l0,0l0,0
	c-0.4-0.3-0.5-0.3-1-0.1c-0.1,0.1-0.2,0.1-0.3,0.2c-0.8,0.6-1.5,1.4-1.8,2.3c-0.1,0.2-0.1,0.3-0.1,0.5c0,0.2,0.1,0.3,0.2,0.5
	c0.1,0.1,0.3,0.2,0.4,0.1c0.2,0,0.4-0.1,0.5-0.2c0.1,0,0.2-0.1,0.3-0.2c0,0,0.1-0.1,0.1-0.1l0.1-0.1l0,0.1c0.1,0.3,0.2,0.5,0.5,0.5
	l0.1,0L54,91.8l0-0.1l0,0.1L53.8,92c-0.2,0.2-0.4,0.4-0.6,0.5c-0.4,0.4-0.9,0.9-1.3,1.3c-0.3,0.3-0.6,0.7-0.8,1
	c-0.1,0.3-0.1,0.5,0,0.7c0.2,0.3,0.4,0.4,0.7,0.3c0.5-0.1,1-0.3,1.5-0.8C54,94.5,54.4,93.9,54.8,93.4 M53,90.6
	c-0.1,0-0.2,0.1-0.2,0.1c0,0-0.1,0-0.1,0.1l-0.1,0.1l0-0.1c0.1-0.8,1.4-2.2,2.2-2.3l0.1,0l0,0.1c0,0,0,0.1,0,0.1
	c0,0.1,0,0.2-0.1,0.3C54.2,89.5,53.7,90.1,53,90.6 M52.3,95.2c-0.1,0.1-0.2,0.1-0.4,0.2c0,0-0.1,0-0.1,0c-0.1,0-0.1,0-0.2-0.1
	c-0.1-0.1-0.1-0.2-0.1-0.3c0-0.1,0.1-0.3,0.1-0.4l0.1-0.1c0.1-0.2,0.3-0.4,0.5-0.6c0.6-0.6,1.3-1.1,1.9-1.7l0.6-0.5c0,0,0,0,0.1,0
	c0,0,0,0,0.1,0l0.2-0.1L54.7,92c-0.1,0.2-0.2,0.3-0.3,0.5c-0.5,0.7-0.9,1.3-1.4,2C52.8,94.8,52.5,95,52.3,95.2"/>
<path class="st0" d="M61,89.9L61,89.9c-0.1,0.1-0.2,0.2-0.2,0.3c-0.1,0.1-0.2,0.2-0.3,0.3c-0.3,0.3-0.5,0.5-0.8,0.7
	c-0.1,0.1-0.3,0.3-0.5,0.1c-0.2-0.2-0.1-0.4,0-0.5l0,0c0.2-0.4,0.4-0.8,0.7-1.1c0.2-0.3,0.4-0.6,0.7-0.9c0.1-0.2,0.2-0.3,0.4-0.5
	c0.1-0.1,0.1-0.2,0.1-0.3c0-0.1,0-0.2-0.1-0.3c-0.1-0.1-0.2,0-0.3,0c-0.1,0-0.1,0.1-0.1,0.1c0,0,0,0-0.1,0.1l0,0l0,0
	c-0.2-0.2-0.4-0.2-0.7-0.1c-0.1,0-0.2,0.1-0.4,0.2c-0.8,0.4-1.4,1.1-1.9,1.8c-0.2,0.3-0.3,0.6-0.4,0.9c-0.1,0.2,0,0.4,0.1,0.5
	c0.1,0.1,0.3,0.2,0.5,0.2c0.3,0,0.5-0.1,0.7-0.3c0.1-0.1,0.2-0.1,0.2-0.2l0.2-0.1l0,0.1c0.1,0.5,0.3,0.7,0.7,0.7
	c0.2,0,0.4-0.1,0.5-0.2c0.5-0.4,0.9-0.9,1.2-1.3c0-0.1,0.1-0.1,0.1-0.2c0,0,0,0,0-0.1C61.1,89.8,61,89.8,61,89.9 M58.2,90.6
	c-0.1,0.1-0.3,0.3-0.5,0.3h0l-0.1,0l0-0.1c0.1-0.8,1.6-2.5,2.3-2.5l0.1,0l0,0.1c0,0,0,0,0,0c0,0,0,0.1,0,0.1l-0.2,0.2
	C59.3,89.4,58.8,90.1,58.2,90.6"/>
<path class="st0" d="M59,86c0,0.1,0.1,0.1,0.2,0.1c0.1,0,0.2,0,0.3-0.1c0.1-0.1,0.2-0.2,0.2-0.4c0-0.1-0.1-0.2-0.2-0.2
	c0,0-0.1,0-0.1,0c-0.1,0-0.2,0-0.3,0.1C59,85.7,58.9,85.8,59,86"/>
<path class="st0" d="M92.7,89.6c-0.1-0.1-0.2,0-0.2,0c-0.1,0.1-0.1,0.1-0.2,0.2c0,0-0.1,0.1-0.1,0.1L92,90.2
	c-0.2,0.2-0.4,0.5-0.6,0.7c-0.1,0.1-0.2,0.2-0.4,0.2l-0.1,0l0-0.1c0.1-0.3,0.2-0.5,0.4-0.7l0,0c0.3-0.4,0.6-0.8,1-1.3
	c0.2-0.3,0.4-0.5,0.6-0.8l0,0c0.1-0.1,0.1-0.2,0.2-0.3c0-0.1,0-0.2,0-0.2c0-0.1-0.1-0.1-0.2-0.1c-0.1,0-0.1,0-0.2,0
	c-0.2,0.1-0.3,0-0.5-0.1c-0.1-0.1-0.3-0.1-0.5-0.1c-0.2,0-0.4,0.1-0.6,0.3c-0.7,0.4-1.3,1-1.9,1.8c-0.1,0.1-0.2,0.2-0.3,0.3
	c-0.2,0.2-0.4,0.3-0.5,0.5l-0.1,0.1c-0.2,0.2-0.5,0.4-0.8,0.5l-0.1,0v-0.1c0-0.2,0.1-0.5,0.2-0.7c0.3-0.4,0.5-0.7,0.8-1.1l0.2-0.3
	c0.1-0.1,0.1-0.2,0.2-0.3c0.1-0.2,0.3-0.3,0.4-0.5c0-0.1,0.1-0.2,0.1-0.2c0-0.1-0.1-0.1-0.2-0.1c-0.5-0.1-0.8,0-0.9,0.3
	c0,0.1-0.1,0.1-0.1,0.2l0,0l-0.4,0.5c-0.5,0.6-1,1.2-1.6,1.8c-0.1,0.1-0.2,0.2-0.2,0.2c0,0-0.1,0.1-0.1,0.1l0,0l-0.2-0.1l0-0.1
	c0-0.1,0.1-0.2,0.1-0.2c0.1-0.2,0.2-0.3,0.3-0.5c0.1-0.2,0.2-0.3,0.4-0.5c0.1-0.2,0.3-0.4,0.4-0.6c0.1-0.2,0.2-0.4,0.2-0.7
	c0-0.1,0-0.2-0.1-0.3c-0.1-0.1-0.1-0.1-0.3-0.1c-0.2,0-0.3,0-0.4,0.1c-0.2,0.1-0.4,0.3-0.6,0.4l-0.1,0.1c-0.1,0-0.1,0.1-0.2,0.1
	c0,0-0.1,0.1-0.1,0.1l-0.1,0.1l0-0.1c0,0,0,0,0,0c0,0,0,0,0-0.1c0-0.3,0-0.4-0.1-0.5c-0.1-0.1-0.3,0-0.5,0.1
	c-0.3,0.1-0.5,0.3-0.8,0.6c-0.2,0.2-0.4,0.4-0.6,0.6c-0.1,0.1-0.2,0.2-0.2,0.3l-0.3,0.4c-0.2,0.3-0.5,0.5-0.7,0.8
	c0,0.1-0.1,0.1-0.2,0.1c0,0-0.1,0.1-0.1,0.1L81.2,91l-0.1-0.1l0,0c0.1-0.1,0.1-0.2,0.2-0.3c0.2-0.2,0.3-0.5,0.5-0.7
	c0.1-0.2,0.2-0.3,0.3-0.5c0.1-0.2,0.3-0.4,0.4-0.6c0.1-0.2,0.2-0.4,0.2-0.5c0.1-0.2,0-0.4-0.3-0.4c-0.1,0-0.1,0-0.2,0l-0.2,0l0-0.1
	c0-0.1,0.1-0.1,0.1-0.2c0.1-0.1,0.1-0.3,0.2-0.4c0.1-0.2,0-0.3,0-0.4c-0.1-0.1-0.2-0.2-0.4-0.2c-0.4,0-0.8,0.2-1.1,0.6
	c-0.1,0.2-0.2,0.4-0.2,0.5c0,0.2,0.1,0.3,0.4,0.5c0,0,0,0,0.1,0.1c0,0,0,0,0,0l0,0L81,88.5c-0.3,0.3-0.5,0.5-0.8,0.8
	c-0.1,0.1-0.2,0.2-0.4,0.3c-0.1,0.1-0.3,0.1-0.5,0l-0.1,0l0-0.1c0,0,0-0.1,0.1-0.1c0-0.1,0.1-0.1,0.1-0.2c0-0.1,0.1-0.1,0.1-0.2
	c0.1-0.2,0.2-0.4,0.2-0.5c0.1-0.3,0-0.5-0.1-0.6c-0.1-0.1-0.4-0.2-0.6-0.1c-0.2,0-0.4,0.1-0.7,0.3c-0.5,0.3-0.8,0.7-1.1,1.1
	c0,0,0,0,0,0.1c0,0.1-0.1,0.1-0.2,0.2c-0.2,0.1-0.4,0.1-0.6,0.1c-0.1,0-0.2,0-0.3,0.1l-0.2,0l0.1-0.1c0,0,0-0.1,0-0.1
	c0,0,0-0.1,0.1-0.1c0.9-0.8,1.7-1.7,2.5-2.8c0.3-0.4,0.5-0.9,0.8-1.3l0-0.1c0.1-0.2,0.1-0.4,0.2-0.6c0-0.2,0-0.3-0.1-0.3
	c-0.1-0.1-0.2-0.1-0.4,0c-0.1,0-0.2,0.1-0.3,0.2c-0.2,0.2-0.4,0.3-0.6,0.5c-0.7,0.7-1.4,1.5-2,2.6c-0.6,0.9-1.1,1.9-1.6,2.8
	l-0.1,0.1c-0.2,0.3-0.5,0.6-0.9,0.9c-0.1,0.1-0.3,0.2-0.5,0.1l-0.1,0l0-0.1c0-0.1,0-0.1,0.1-0.2c0-0.1,0.1-0.2,0.2-0.4
	c0.2-0.3,0.3-0.5,0.5-0.8c0.2-0.2,0.3-0.5,0.5-0.7c0.2-0.3,0.3-0.5,0.5-0.8c0.1-0.1,0.1-0.2,0.1-0.3c0,0,0-0.1,0-0.1
	c0,0-0.1-0.1-0.1-0.1c-0.3-0.1-0.6,0.1-0.8,0.3c-0.7,0.9-1.3,1.7-1.8,2.4c-0.2,0.2-0.4,0.5-0.6,0.7c-0.1,0.1-0.3,0.3-0.5,0.2l-0.1,0
	l0-0.1c0-0.5,0.1-1,0.4-1.3c0.4-0.4,0.8-0.9,1.2-1.3l0.3-0.3c1.2-1.3,2.2-2.8,3-4.1c0.1-0.2,0.2-0.4,0.3-0.7c0.1-0.2,0-0.3-0.1-0.4
	c-0.1-0.1-0.3-0.1-0.4-0.1c-0.2,0.1-0.4,0.2-0.5,0.3c-0.6,0.4-1,0.9-1.5,1.5c-0.7,0.9-1.3,1.9-2,2.9c-0.4,0.7-0.9,1.5-1.1,2.4
	c0,0.1-0.1,0.2-0.2,0.3c-0.3,0.3-0.5,0.5-0.7,0.7c-0.1,0.1-0.1,0.1-0.2,0.2c0,0-0.1,0.1-0.2,0.1l-0.1,0.1l0-0.1
	c0-0.3,0.1-0.5,0.3-0.7c0.2-0.3,0.3-0.5,0.5-0.8c0.2-0.3,0.4-0.6,0.5-0.8c0.2-0.2,0.4-0.6,0.5-0.9c0.1-0.2,0.1-0.2-0.1-0.3
	c-0.2-0.1-0.2-0.1-0.3,0.1c0,0.1-0.1,0.1-0.1,0.2l-0.1,0.2l-0.1-0.1c-0.4-0.3-0.7-0.4-1.1-0.2c0,0-0.1,0-0.1,0.1
	c-0.8,0.5-1.5,1.2-1.9,2.2c-0.1,0.2-0.1,0.3-0.1,0.6c0,0.2,0.1,0.5,0.2,0.6c0.2,0.2,0.4,0.2,0.6,0.2c0.2,0,0.3-0.1,0.5-0.2l0.1-0.1
	c0.1,0,0.1-0.1,0.2-0.1c0,0,0.1-0.1,0.1-0.1l0.1-0.1l0.1,0.2c0,0,0,0.1,0,0.1c0,0.2,0.1,0.3,0.2,0.3c0.1,0,0.2,0,0.4,0
	c0.1-0.1,0.3-0.2,0.4-0.3c0,0,0.1-0.1,0.1-0.1c0.1,0,0.1-0.1,0.2-0.2c0,0,0.1-0.1,0.1-0.1l0.1-0.1l0,0.1c0,0,0,0.1,0,0.1
	c0,0.1,0,0.1,0,0.1c0.1,0.3,0.4,0.5,0.6,0.4c0.2,0,0.4-0.1,0.5-0.2c0.2-0.2,0.4-0.4,0.6-0.6c0.1-0.1,0.1-0.1,0.2-0.2
	c0.1-0.1,0.1-0.1,0.2-0.2l0.2-0.3l0,0.2c0,0.1,0,0.2,0,0.3c0,0.2-0.1,0.4,0.1,0.6c0.2,0.2,0.4,0.2,0.7,0.2l0.2,0l-0.1,0.1
	c0,0.1-0.1,0.1-0.1,0.2c-0.1,0.1-0.1,0.3-0.2,0.4l-0.1,0.1c-0.1,0.2-0.2,0.4-0.3,0.6C73,93.2,73,93.4,73,93.6c0,0.1,0,0.2,0.1,0.2
	c0.1,0,0.2,0,0.2,0c0.2-0.1,0.4-0.1,0.5-0.2c1-0.9,1.6-1.8,1.9-2.9c0.1-0.2,0.1-0.4,0.1-0.6c0-0.1,0-0.2,0-0.3l0,0l0.7-0.1l0,0.1
	c0,0.1-0.1,0.1-0.1,0.2c-0.1,0.1-0.1,0.3-0.1,0.4c-0.1,0.2-0.1,0.4-0.1,0.5c0,0.2,0.1,0.4,0.3,0.5c0.2,0.1,0.4,0.1,0.6,0.1
	c0.2-0.1,0.4-0.2,0.6-0.3c0.2-0.2,0.4-0.4,0.6-0.6c0.1-0.1,0.2-0.2,0.2-0.2c0,0,0.1-0.1,0.1-0.2l0.1-0.1l0,0
	c0.5,0.2,0.9,0.1,1.3-0.2c0.2-0.1,0.3-0.3,0.5-0.4c0.2-0.2,0.4-0.5,0.6-0.7c0.1-0.1,0.2-0.2,0.3-0.3c0,0,0.1-0.1,0.1-0.1l0.3-0.3
	l-0.1,0.4c-0.1,0.2-0.2,0.3-0.3,0.5c0,0-0.1,0.1-0.1,0.1c-0.1,0.1-0.1,0.2-0.2,0.3c-0.2,0.3-0.5,0.7-0.7,1.1
	c-0.1,0.2-0.2,0.4-0.2,0.7c0,0.2,0,0.4,0.2,0.5c0.1,0.1,0.3,0.1,0.5,0c0.2-0.1,0.5-0.3,0.7-0.4c0.1-0.1,0.3-0.3,0.4-0.4l0.1-0.1
	c0.2-0.3,0.5-0.6,0.7-0.8c0.3-0.3,0.5-0.6,0.8-0.9c0.1-0.1,0.1-0.1,0.2-0.2c0,0,0.1,0,0.1-0.1l0.1,0l0.1,0.1l-0.8,1.1
	c-0.2,0.3-0.4,0.7-0.6,1c-0.1,0.1-0.1,0.3-0.2,0.4c-0.1,0.1,0,0.2,0.1,0.3c0.1,0.1,0.2,0.1,0.3,0c0.1-0.1,0.1-0.2,0.2-0.3
	c0.5-0.7,1.1-1.3,1.7-2c0.2-0.2,0.4-0.4,0.6-0.6c0.1-0.1,0.1-0.1,0.2-0.2c0,0,0.1,0,0.1-0.1l0.1-0.1l0,0.2c0,0.2-0.1,0.3-0.2,0.3
	c-0.1,0.1-0.1,0.2-0.2,0.3c-0.2,0.2-0.3,0.5-0.5,0.7c-0.1,0.2-0.2,0.4-0.3,0.7c-0.1,0.4-0.1,0.6,0.1,0.8c0.3,0.2,0.6,0,0.8-0.1
	c0.2-0.2,0.5-0.4,0.7-0.6c0.1-0.1,0.2-0.2,0.3-0.3L87,90l-0.1,0.2c0,0.1,0,0.2-0.1,0.2c0,0.1-0.1,0.3-0.1,0.4c0,0.2,0,0.3,0.1,0.4
	c0.1,0.1,0.2,0.1,0.4,0.1c0.2,0,0.4,0,0.6-0.1c0.1-0.1,0.3-0.2,0.4-0.3c0.1-0.1,0.1-0.1,0.2-0.2c0,0,0.1-0.1,0.1-0.1l0.2-0.1l0,0.2
	c0,0,0,0.1,0,0.1c0,0.2,0.1,0.4,0.3,0.5c0.2,0.1,0.4,0.1,0.6,0c0.1-0.1,0.2-0.1,0.3-0.2c0,0,0.1-0.1,0.1-0.1c0.1,0,0.1-0.1,0.2-0.1
	l0.2-0.1l0,0.1c0,0.4,0.1,0.5,0.4,0.6c0.2,0,0.3,0,0.5-0.2c0.4-0.4,0.8-0.8,1.3-1.4c0,0,0-0.1,0-0.1C92.8,89.7,92.8,89.7,92.7,89.6
	 M72.4,88.3c0.1-0.5,2.4-3.7,3.2-4.4l0.4-0.3L75.6,84c-1,1.6-2,3-3.1,4.4l-0.1,0.2L72.4,88.3z M69.2,90.2c-0.3,0.4-0.6,0.6-0.9,0.7
	c0,0-0.1,0-0.1,0c0,0,0,0-0.1,0l-0.1,0l0-0.1c0-0.7,1.2-2.3,1.9-2.5l0.1,0l0,0.1c0.1,0.2,0.1,0.4-0.1,0.6c-0.1,0.1-0.2,0.3-0.3,0.4
	C69.5,89.8,69.3,90,69.2,90.2 M75.4,90.1c0,0.1,0,0.1,0,0.2c0,0.1-0.1,0.2-0.1,0.3c-0.3,0.8-0.8,1.7-1.5,2.5c0,0,0,0.1-0.1,0.1
	c0,0,0,0,0,0l-0.1,0.1l0-0.2c0.1-0.5,1.4-2.8,1.8-3.2l0.2-0.2L75.4,90.1z M75.8,89.3l0.4-0.5c0.2-0.2,0.3-0.4,0.5-0.6
	c0.3-0.5,0.7-0.9,1.1-1.4c0.3-0.5,0.7-1,1-1.4c0.1-0.2,0.3-0.4,0.4-0.6l0.3-0.5l-0.2,0.5c-0.6,1.6-1.6,3-3,4.1L75.8,89.3z
	 M78.5,89.9c-0.3,0.3-0.6,0.7-1.2,1L77.1,91l0-0.1c0.1-0.9,0.6-1.5,1.1-2.1l0.1-0.1L78.5,89.9L78.5,89.9z M82,87
	c0,0.3-0.2,0.5-0.4,0.7l-0.1,0.1l0-0.1c-0.1-0.1-0.1-0.2-0.1-0.3c0-0.1,0.2-0.3,0.5-0.4l0.1-0.1L82,87z M89.6,90.7l-0.2,0.1
	L89.6,90.7c0.5-1.2,1.3-2,2.3-2.6l0.3-0.2L92,88.3c-0.1,0.2-0.2,0.3-0.3,0.5C91.1,89.5,90.6,90.3,89.6,90.7"/>
<path class="st0" d="M66.4,91.4c0.1-0.1,0.1-0.2,0.1-0.3c0,0,0-0.1,0-0.1c-0.1-0.1-0.1,0-0.3,0.1c0,0,0,0,0,0
	c-0.1,0.1-0.2,0.2-0.3,0.3c-0.1,0.1-0.2,0.2-0.3,0.2c-0.3,0.2-0.5,0.3-0.8,0.4c-0.3,0.1-0.6,0-0.7-0.1c-0.2-0.1-0.3-0.4-0.3-0.7
	c0-0.2,0-0.4,0-0.6l0,0c0.1-0.4,0.2-0.7,0.3-1.1c0.7-2,2-3.8,3.7-5.4c0.2-0.2,0.4-0.3,0.7-0.5c0.1,0,0.1-0.1,0.2-0.1
	c0.1-0.1,0.2-0.1,0.3-0.2c0.2-0.1,0.4-0.1,0.5,0c0.1,0.1,0.1,0.2,0.1,0.4c0,0.3-0.1,0.5-0.2,0.8c-0.3,0.5-0.6,1-1,1.4c0,0,0,0-0.1,0
	c0,0-0.1,0.1-0.1,0.1c-0.1,0.1-0.1,0.2-0.1,0.2c0,0.1,0.1,0.1,0.2,0.1c0.1,0,0.3,0,0.4-0.1c0.8-0.4,1.4-0.9,1.8-1.6
	c0.3-0.4,0.3-0.9,0.3-1.3c-0.1-0.4-0.3-0.7-0.7-0.8c-0.3-0.1-0.7-0.1-1,0c-0.9,0.2-1.7,0.7-2.3,1.2c-1.6,1.4-2.8,3.1-3.5,5.2
	c-0.2,0.6-0.3,1.1-0.3,1.6c0,0.4,0.1,0.7,0.2,1.1c0.3,0.6,0.9,1,1.5,0.9C65.4,92.5,65.9,92.1,66.4,91.4"/>
<path class="st0" d="M90.1,85.6c0,0.2,0.1,0.3,0.3,0.3h0c0.1,0,0.3-0.1,0.4-0.2c0.1-0.1,0.2-0.2,0.1-0.3c0-0.1-0.1-0.2-0.1-0.2
	c-0.1,0-0.1,0-0.2,0c-0.1,0-0.2,0-0.3,0.1C90.1,85.3,90.1,85.5,90.1,85.6"/>
<path class="st0" d="M75.9,85.5c0,0.1,0,0.2,0.1,0.2c0,0,0.1,0.1,0.2,0.1c0.1,0,0.3,0,0.4-0.2c0.1-0.1,0.2-0.2,0.2-0.4
	c0-0.1,0-0.2-0.1-0.2c0,0-0.1,0-0.1,0c0,0,0,0-0.1,0C76.2,85.1,75.9,85.3,75.9,85.5"/>
<path class="st0" d="M93.5,90.8c0,0-0.1,0-0.1,0c0,0,0,0,0,0c-0.2,0-0.4,0.2-0.5,0.4c-0.1,0.1-0.1,0.2,0,0.3c0,0.1,0.2,0.1,0.3,0.1
	h0c0.1,0,0.3-0.1,0.4-0.2c0.1-0.1,0.2-0.3,0.2-0.4C93.6,90.9,93.5,90.8,93.5,90.8"/>
<path class="st1" d="M106.5,69.6L106.5,69.6c0.3-1.2,0.5-2.5,0.5-3.9c0-1.9-0.3-3.6-0.9-5c-0.6-1.4-1.4-2.6-2.4-3.6l-3.7-3.5
	c-1-1-2.3-1.8-3.7-2.5c-1.4-0.7-2.9-1.4-4.6-2c-0.4-0.2-0.8-0.3-1.2-0.5c0-0.1,0-0.3,0-0.4c0.2-0.8,0.7-1.3,1.1-1.5
	c0.3-0.2,0.6-0.3,0.9-0.4c0.6-0.1,1.3-0.2,2-0.1c0,0.3-0.1,0.5-0.1,0.5L94.4,47l0.7,0.7l3.7,3.5l4.5-5.9l1.9-2.4l0,0l1.5-2l-3.7-3.5
	l-0.8-0.6l-0.2,0.1c0,0-1.1,0.6-2.4-0.4l-0.1-0.1l-0.2-0.2l0,0c-0.4-0.4-0.9-0.7-1.3-1c-1.3-0.8-2.6-1.5-3.9-1.8
	c-1.3-0.4-2.7-0.6-4.2-0.6c-1.9,0-3.7,0.3-5.2,0.8c-1.6,0.6-2.9,1.3-4,2.4c-1.1,1-2,2.3-2.6,3.7c-0.6,1.4-0.9,3-0.9,4.8
	c0,1.6,0.2,3.1,0.7,4.5c0.5,1.3,1.2,2.6,2.2,3.7c0.5,0.6,1.2,1.2,1.9,1.8l-0.1,0l2.7,2.5c0.3,0.3,0.6,0.6,0.9,0.8l0,0h0
	c0.6,0.5,1.2,1,2,1.4c1.4,0.9,3.1,1.7,5,2.5c0.3,0.1,0.7,0.3,1.1,0.4c0,0.5-0.1,0.9-0.2,1.3c-0.1,0.4-0.3,0.8-0.6,1.1
	c-0.3,0.3-0.7,0.6-1.1,0.7c-0.5,0.2-1.1,0.3-1.9,0.3c-0.6,0-1.3-0.1-1.9-0.3c0-0.6,0.1-1,0.1-1l0.1-0.2l-0.7-0.7l0,0L83.4,60
	l-7.1,7.8V56.7V40.9c0-2,1.4-2.6,1.5-2.6l0.2-0.1v-1l-3.7-3.5H63.6l-5.2,11.8l-3.7-8.4L51,33.7H40.4l0,1l0.2,0.1c0,0,1,0.4,1.3,1.6
	l-2.9-2.7H26.6l0,1l0.2,0.1c0.1,0,1.5,0.6,1.5,2.6v6.1c-0.7-1.3-1.7-2.4-3.1-3.4c-0.3-0.2-0.7-0.5-1-0.7c-0.7-1-1.6-2-2.7-2.8
	c-2.5-1.8-5.4-2.8-8.8-2.9l-12.5,0v1l0.2,0.1c0,0,1.5,0.6,1.5,2.6v34c0,2-1.4,2.6-1.5,2.6l-0.2,0.1v1l3.7,3.5H16l0.3,0v0
	c3.5-0.1,6.4-1.1,8.9-2.9c0.5-0.4,0.9-0.7,1.3-1.1v0.6l3.7,3.5h12.5v-1l-1.4-1.3l0-0.3l2.8,2.6h12.5l0-1l-1.4-1.3
	c-0.1-0.1-0.1-0.3-0.2-0.4c-0.1-0.4-0.1-0.9-0.1-0.9V66v-3.1l2.4,5l3.7,3.5l2.4-5v5c0,2-1.4,2.6-1.5,2.6l-0.2,0.1v1l3.7,3.5H78l0-1
	l-1.3-1.2c-0.4-0.6-0.4-2.1-0.4-2.1v-3.4l2.9,2.7l0.2-0.1c0,0,1.2-0.5,2.7,0.9l0,0c0.2,0.2,0.4,0.4,0.6,0.6c1.5,1.3,3.2,2.3,4.9,3.1
	c1.8,0.8,3.6,1.2,5.4,1.2c1.9,0,3.8-0.3,5.4-1c1.7-0.6,3.2-1.6,4.4-2.7c1.2-1.2,2.2-2.6,3-4.3c0.1-0.3,0.3-0.6,0.4-1
	C106.4,70,106.4,69.8,106.5,69.6L106.5,69.6z M27.4,73.6c0.2-0.2,0.4-0.5,0.6-0.8C27.8,73.2,27.6,73.4,27.4,73.6 M42.1,71.4
	c0,1-0.4,1.7-0.8,2.1l-0.2-16.3V40.9c0-1.3,0.6-2,1-2.3V71.4z M14.7,66.3L14.7,66.3l0-10.1l0,0V45.3l1.9,0.1l0,18.3
	c0,0.9-0.4,1.6-1.3,2.2C15.1,66,14.9,66.1,14.7,66.3L14.7,66.3z"/>
<path class="st2" d="M29.1,65.1l0-21.2c0-2.8-1.4-5.2-4-7.2c-2.5-1.8-5.4-2.8-8.8-2.9l-12.5,0v1L4,34.9c0,0,1.5,0.6,1.5,2.6v34
	L0,71.7l3.7,3.5h12.1l0.3,0v0c3.5-0.1,6.4-1.1,8.9-2.9C27.8,70.3,29.1,67.9,29.1,65.1 M18.9,65.9c-0.9,0.6-1.9,1-3.2,1l-1.2,0v-25
	l1.2,0c1.3,0,2.3,0.3,3.2,1c0.9,0.6,1.3,1.4,1.3,2.2l0,18.6C20.2,64.6,19.8,65.3,18.9,65.9"/>
<path class="st2" d="M106,57.3c-0.6-1.4-1.4-2.6-2.4-3.5l-3.7-3.5l0,0.9c-1.4-0.7-2.9-1.4-4.5-2c-0.8-0.3-1.6-0.6-2.2-0.9
	c-0.6-0.3-1.1-0.6-1.6-0.9c-0.4-0.3-0.7-0.6-0.9-0.9c-0.2-0.3-0.3-0.7-0.3-1.2c0-0.5,0.1-0.8,0.3-1.1c0.2-0.3,0.4-0.6,0.7-0.7
	c0.3-0.2,0.7-0.3,1.1-0.4c0.7-0.2,1.6-0.2,2.5,0l-0.6,0.7l4.4,4.2l6.3-8.3l0,0l1.5-2l-3.7-3.5l-1.3,1.4l0,0
	c-1.3-0.8-2.6-1.5-3.9-1.8c-1.3-0.4-2.7-0.6-4.2-0.6c-1.9,0-3.7,0.3-5.2,0.8c-1.6,0.6-2.9,1.3-4,2.4c-1.1,1-2,2.3-2.6,3.7
	c-0.6,1.4-0.9,3-0.9,4.8c0,1.6,0.2,3.1,0.7,4.5c0.3,0.8,0.7,1.6,1.1,2.3l-0.9-0.3l2.7,2.5c0.3,0.3,0.6,0.6,0.9,0.8l0,0
	c0.6,0.5,1.2,1,2,1.4c1.4,0.9,3.1,1.7,5,2.5c0.4,0.2,0.9,0.4,1.5,0.6c0.6,0.2,1.1,0.5,1.6,0.9c0.5,0.3,0.9,0.7,1.3,1.1
	c0.3,0.4,0.5,0.8,0.5,1.3c0,0.5-0.1,0.9-0.2,1.4c-0.1,0.4-0.3,0.8-0.6,1.1s-0.7,0.6-1.1,0.7c-0.5,0.2-1.1,0.3-1.9,0.3
	c-0.8,0-1.6-0.2-2.3-0.5c-0.7-0.3-1.5-0.8-2.2-1.4c-1.6-1.3-0.9-2.9-0.9-2.9l0.1-0.2L87,60.1l0,0l-3.7-3.5l-7.1,9.1V37.5
	c0-2,1.4-2.6,1.5-2.6l0.2-0.1v-1l-3.7-3.5l-1.9,1l-0.6,2.4h-4.4l-6.3,14.4l-6.3-14.4l-3.7-3.5l0.5,3.5H44l0,1l0.2,0.1
	c0.1,0,1.5,0.6,1.5,2.6v33.8L41,71.6c0,0,0-0.1,0-0.1v-34c0-2,1.4-2.6,1.5-2.6l0.2-0.1v-1l-3.7-3.5l-2.2,0.5l-0.2,2.9h-6.3l0,1
	l0.2,0.1c0.1,0,1.5,0.6,1.5,2.6v33.8l-5.4,0.4l3.7,3.5h12.5v-1l-1.4-1.3c-0.1-0.1-0.1-0.2-0.1-0.4l2.9,2.7h12.5l0-1L55,72.9
	c-0.2-0.4-0.3-0.8-0.3-1.4V55.4l3.3,6.7l-0.9,2.4l3.7,3.5l6.2-12.6v15.8l-5.4,0.4l3.7,3.5h12.5l0-1l-1.4-1.3
	c-0.2-0.4-0.3-0.8-0.3-1.4v-4l2.9,2.7l0.2-0.1c0,0,1.2-0.5,2.7,0.9l0,0c0.2,0.2,0.4,0.4,0.6,0.6c1.5,1.3,3.2,2.3,4.9,3.1
	c1.8,0.8,3.6,1.2,5.4,1.2c1.9,0,3.8-0.3,5.4-1c1.7-0.6,3.2-1.6,4.4-2.7c1.2-1.2,2.2-2.6,3-4.3c0.7-1.7,1.1-3.6,1.1-5.6
	C106.9,60.3,106.6,58.7,106,57.3"/>
<path class="st3" d="M87.5,39.7l-1.1,1L86.3,43l1.4,1.3l2.5,1.1c0-1.7,1.5-2.3,1.5-2.3s-2.9-0.8-2.3-4.1c0.6-3.3,0,0,0,0L87.5,39.7z
	"/>
<path class="st3" d="M60.9,68l3.8-7.7c0,0-2.6,1.2-4.1-3.4l-3.4,7.6L60.9,68z"/>
<path class="st3" d="M55,72.9l-2.3-2.2c0,0-1.5,0-1.8-2.3c-0.3-2.3-0.1-8.8-0.1-8.8s2.1,5,4,3.1v8.8C54.7,71.5,54.8,72.7,55,72.9"/>
<path class="st3" d="M76.7,73.1l-2.6-2.4c0,0-1.8-0.1-2-2.7c-0.3-2.5,0-15.8,0-15.8s2.9,4,4.1,1.1v17.5
	C76.2,70.9,76.2,72.6,76.7,73.1"/>
<path class="st3" d="M94.9,44.4l3.7,3.5l4.5-5.8c0,0-2.7,0.2-3.6-3.8L94.9,44.4z"/>
<polygon class="st3" points="38.9,31.4 42.6,34.8 42.6,33.8 38.9,30.4 "/>
<path class="st3" d="M14.5,41.9l-3.7-3.5l1.3-0.3c0,0,4.4,0.4,4.6,3.8L14.5,41.9z"/>
<path class="st3" d="M76.2,67.5l2.9,2.7L76.2,67.5z"/>
<path class="st3" d="M82,71.1L82,71.1c0.2,0.2,0.4,0.4,0.7,0.6c1.5,1.3,3.2,2.3,4.9,3.1c1.8,0.8,3.6,1.2,5.4,1.2
	c1.9,0,3.8-0.3,5.4-1c1.7-0.6,3.2-1.6,4.4-2.7c1.2-1.2,2.2-2.6,3-4.3c0.2-0.5,0.4-1.1,0.6-1.7c-0.2,0.1-3.4,1.8-4.6-1.9
	c0,0-2.9,7.8-12.5,7.8c0,0-5.4-0.6-6.8-2l-2.3-1.4l-1.8-1.6l-1.2-0.7l-1.3-0.1l-0.4,0.5l0.8,0.7l2.9,2.7l0.2-0.1
	C79.4,70.1,80.5,69.6,82,71.1"/>
<path class="st3" d="M41.2,72.9l-2.3-2.2c0,0-2-0.5-2-2.7c0-2.2,0-15.6,0-15.6s2.7,3.9,4.1,1.3L41.2,72.9z"/>
<path class="st3" d="M10.8,63.4l2.1,0.1l1.6-0.7V52.8c0,0-1.4,3-3.9-0.3L10.8,63.4z"/>
<path class="st3" d="M16.2,75.1L16.2,75.1c3.5-0.1,6.4-1.1,8.9-2.9c2.7-1.9,4-4.3,4-7.1c-1.8,2.7-4.4-0.8-4.4-0.8
	c-2.1,6.6-12.6,7.4-12.6,7.4H0l3.7,3.5h12.1L16.2,75.1z"/>
<path class="st0" d="M21.1,33.5c-2.5-1.8-5.5-2.8-9-2.8v0h-1.7H2H0.3v0.4c0,0,1.7,0.6,1.7,2.9v34c0,2.3-1.7,2.9-1.7,2.9v0.4H2h8.4
	h1.7v0c3.5-0.1,6.5-1,9-2.8c2.6-1.9,3.9-4.2,3.9-6.9l0-21.2C25,37.7,23.7,35.4,21.1,33.5 M15.4,62.7c-0.9,0.7-2.1,1-3.4,1l-1.6,0
	V38.1l1.5,0c1.3,0,2.5,0.3,3.4,1c0.9,0.7,1.4,1.5,1.4,2.5l0,18.6C16.8,61.2,16.3,62.1,15.4,62.7"/>
<path class="st0" d="M28.5,30.7h-1.7v0.4c0,0,1.7,0.6,1.7,2.9v34c0,2.3-1.7,2.9-1.7,2.9v0.4h1.7h8.4h1.7v-0.4c0,0-1.7-0.6-1.7-2.9
	V34c0-2.3,1.7-2.9,1.7-2.9v-0.4h-1.7H28.5z"/>
<path class="st0" d="M63.7,30.7l-6.5,14.9l-6.5-14.9h-8.4h-1.7v0.4c0,0,1.7,0.6,1.7,2.9v34c0,2.3-1.7,2.9-1.7,2.9v0.4h1.7h8.4h1.7
	v-0.4c0,0-1.7-0.6-1.7-2.9V50.5l6.5,13.2l6.5-13.2V68c0,2.3-1.7,2.9-1.7,2.9v0.4h1.7h8.4h1.7v-0.4c0,0-1.7-0.6-1.7-2.9V34
	c0-2.3,1.7-2.9,1.7-2.9v-0.4h-1.7H63.7z"/>
<path class="st0" d="M101.9,54c-0.6-1.3-1.4-2.5-2.4-3.4c-1-1-2.2-1.8-3.6-2.5c-1.4-0.7-2.9-1.4-4.6-2c-0.9-0.3-1.6-0.6-2.3-0.9
	c-0.6-0.3-1.2-0.6-1.6-0.9c-0.4-0.3-0.8-0.7-1-1c-0.2-0.4-0.3-0.8-0.3-1.3c0-0.5,0.1-0.9,0.3-1.3c0.2-0.4,0.5-0.6,0.8-0.9
	c0.3-0.2,0.7-0.4,1.2-0.5C89,39.1,89.5,39,90,39c0.5,0,1,0.1,1.5,0.3c0.5,0.2,0.9,0.4,1.4,0.7c0.2,0.1,0.4,0.3,0.6,0.4
	c1.8,1.5,1.2,3.2,1.2,3.2l0.3,0.3l1-1.3l5.3-7l0,0l1.1-1.4l-0.3-0.3c0,0-1.3,0.8-2.8-0.4c0,0,0,0-0.1-0.1c0,0-0.1-0.1-0.1-0.1
	c0,0-0.1-0.1-0.1-0.1l0,0c-0.4-0.3-0.8-0.7-1.3-1c-1.3-0.8-2.5-1.4-3.8-1.8C92.4,30.2,91,30,89.6,30c-1.9,0-3.6,0.3-5.1,0.8
	c-1.5,0.5-2.8,1.3-3.9,2.3s-1.9,2.2-2.5,3.6s-0.9,2.9-0.9,4.6c0,1.6,0.2,3.1,0.7,4.4c0.5,1.3,1.2,2.5,2.1,3.6c0.9,1.1,2.1,2.1,3.5,3
	c1.4,0.9,3,1.7,4.9,2.5c0.4,0.2,0.9,0.4,1.5,0.6c0.6,0.2,1.1,0.5,1.7,0.9c0.5,0.3,1,0.7,1.3,1.2c0.4,0.4,0.5,1,0.5,1.5
	c0,0.5-0.1,1-0.2,1.5c-0.1,0.5-0.4,0.9-0.7,1.2c-0.3,0.3-0.7,0.6-1.3,0.8c-0.5,0.2-1.2,0.3-2,0.3c-0.9,0-1.7-0.2-2.4-0.5
	c-0.8-0.3-1.5-0.8-2.3-1.4c-1.8-1.5-1-3.3-1-3.3l-0.3-0.3l-1.2,1.3l-5.8,6.4l-1.2,1.3l0.3,0.3c0,0,1.4-0.7,3.1,1l-0.1-0.1
	c0.2,0.2,0.4,0.4,0.7,0.6c1.5,1.3,3.1,2.3,4.8,3c1.7,0.8,3.5,1.1,5.3,1.1c1.9,0,3.7-0.3,5.3-0.9c1.6-0.6,3.1-1.5,4.3-2.7
	c1.2-1.2,2.2-2.5,2.9-4.2c0.7-1.6,1.1-3.5,1.1-5.5C102.8,56.9,102.5,55.3,101.9,54"/>
<polygon class="st3" points="26.4,71.7 30.2,75.2 42.6,75.2 38.9,71.7 "/>
<polygon class="st3" points="40.2,71.7 52.7,71.7 56.4,75.2 44,75.2 "/>
<polygon class="st3" points="61.7,71.7 74.1,71.7 77.9,75.2 65.4,75.2 "/>
<polygon class="st3" points="74.1,31.4 77.9,34.8 77.9,33.8 74.1,30.4 "/>
<path class="st4" d="M0.3,70.9v0.4H2h8.4h1.7v0c3.5-0.1,6.5-1,9-2.8c2.6-1.9,3.9-4.2,3.9-6.9l0-5.2c-2.8,0.5-5.6,0.8-8.3,1l0,2.9
	c0,1-0.5,1.8-1.4,2.5c-0.9,0.7-2.1,1-3.4,1l-1.6,0v-6.2c-3.1-0.1-5.9-0.3-8.4-0.6V68C2,70.3,0.3,70.9,0.3,70.9"/>
<path class="st4" d="M26.8,70.9v0.4h1.7h8.4h1.7v-0.4c0,0-1.7-0.6-1.7-2.9V53.2c-2.8,1.1-5.6,1.9-8.4,2.5V68
	C28.5,70.3,26.8,70.9,26.8,70.9"/>
<path class="st4" d="M40.6,70.9v0.4h1.7h8.4h1.7v-0.4c0,0-1.7-0.6-1.7-2.9V50.5l6.5,13.2l6.5-13.2V68c0,2.3-1.7,2.9-1.7,2.9v0.4h1.7
	h8.4h1.7v-0.4c0,0-1.7-0.6-1.7-2.9V47.6c-10.5-0.1-21.1,0.8-29.8,3.6V68C42.3,70.3,40.6,70.9,40.6,70.9"/>
<path class="st4" d="M83.5,52.2c1.4,0.9,3,1.7,4.9,2.5c0.4,0.2,0.9,0.4,1.5,0.6c0.6,0.2,1.1,0.5,1.7,0.9c0.5,0.3,1,0.7,1.3,1.2
	c0.4,0.4,0.5,1,0.5,1.5c0,0.5-0.1,1-0.2,1.5c-0.1,0.5-0.4,0.9-0.7,1.2c-0.3,0.3-0.7,0.6-1.3,0.8c-0.5,0.2-1.2,0.3-2,0.3
	c-0.9,0-1.7-0.2-2.4-0.5c-0.8-0.3-1.5-0.8-2.3-1.4c-1.8-1.5-1-3.3-1-3.3l-0.3-0.3l-1.2,1.3l-5.8,6.4l-1.2,1.3l0.3,0.3
	c0,0,1.4-0.7,3.1,1l-0.1-0.1c0.2,0.2,0.4,0.4,0.7,0.6c1.5,1.3,3.1,2.3,4.8,3c1.7,0.8,3.5,1.1,5.3,1.1c1.9,0,3.7-0.3,5.3-0.9
	c1.6-0.6,3.1-1.5,4.3-2.7c1.2-1.1,2.2-2.5,2.9-4.2c0.7-1.6,1-3.5,1-5.5c0-1.9-0.3-3.5-0.9-4.8s-1.4-2.5-2.4-3.4
	c-0.2-0.2-0.4-0.4-0.7-0.6c-5.8-0.9-12.7-1.7-19.8-2.1c0.3,0.5,0.6,0.9,1,1.4C81,50.3,82.1,51.3,83.5,52.2"/>
<path class="st5" d="M17.6,42c0-1.1-0.5-2-1.5-2.8c-0.6-0.5-1.3-0.8-2.1-0.9c0.1,0.1,0.2,0.2,0.3,0.3c0.4,0.2,0.6,0.5,0.9,0.8
	c0.2,0.1,0.4,0.2,0.5,0.3c0.9,0.6,1.3,1.4,1.3,2.2l0,18.6c0,0.9-0.4,1.6-1.3,2.2c-0.9,0.6-1.9,1-3.2,1l-1.2,0v-0.3
	c-0.2,0.1-0.4-0.1-0.7-0.1v1l1.9,0c1.4,0,2.6-0.4,3.6-1.1c1-0.7,1.5-1.7,1.5-2.8L17.6,42z"/>
<path class="st5" d="M21.9,34.2c-0.6-0.3-1.1-0.8-1.4-1.3c-2.2-1.3-4.7-2-7.6-2.1l-12.5,0V31c0.3,0.3,0.6,0.7,0.8,1.1
	c0.4,0.4,0.9,1,0.9,2.2v34c0,2-1.4,2.6-1.5,2.6l-0.2,0.1v0.6c2.1,0,4.2,0,6.3-0.3l-5.4,0c0.6-0.4,1.5-1.2,1.5-3v-34
	c0-1.8-0.9-2.6-1.5-3H11l1.7,0c3.4,0.1,6.4,1,8.8,2.8c0.2,0.1,0.3,0.3,0.5,0.4l0,0C21.9,34.4,21.9,34.3,21.9,34.2"/>
<path class="st5" d="M38.3,71.6c0.1,0,0.3,0,0.4,0l-0.2-0.2"/>
<path class="st5" d="M38.6,31.4H27.8c0.6,0.4,1.5,1.2,1.5,3v34c0,1.8-0.9,2.6-1.5,3L27,71.6v-0.5l0.2-0.1c0.1,0,1.5-0.6,1.5-2.6v-34
	c0-1-0.4-1.6-0.7-2c-0.2-0.5-0.6-0.8-1-1.1l0-0.5h11.8L38.6,31.4z"/>
<path class="st5" d="M57.6,63.2l-6.8-13.7v1.8c0.1,0.2,0.3,0.4,0.4,0.6c0.1,0.2,0.2,0.4,0.3,0.6v-0.1l5.6,11.3
	C57.2,63.4,57.4,63.3,57.6,63.2"/>
<path class="st5" d="M42.4,71.4c0.1,0,0.2,0,0.4,0c2.1,0,4.2,0.2,6.3,0h-6.8C42.3,71.4,42.3,71.4,42.4,71.4"/>
<path class="st5" d="M50.9,30.7H40.8l0.1,0.8l0.2,0.2c0.1,0,1.3,0.7,1.4,2.7v34c0,2-1.4,2.6-1.5,2.6l-0.2,0.1v0.4
	c0.3-0.1,0.5-0.1,0.8-0.1c0,0,0.1,0,0.1,0c0.6-0.4,1.4-1.2,1.4-2.9v-34c0-1.8-0.9-2.6-1.5-3H51l0.2,0.5c0-0.1,0.1-0.2,0.1-0.3
	C51.2,31.4,51,31.1,50.9,30.7"/>
<path class="st5" d="M64,30.7l-6.3,14.4l-0.2-0.4c-0.1,0.2-0.3,0.4-0.5,0.6l0.6,1.4l6.7-15.4h8.6c0.2-0.2,0.4-0.5,0.6-0.7H64z"/>
<path class="st5" d="M63.9,52.3v16.1c0,2-1.4,2.6-1.5,2.6l-0.2,0.1v0.3c0.4-0.1,0.7-0.1,1.1-0.2c0.6-0.4,1.3-1.3,1.3-2.8V49.5
	l-1,2.1c0.3-0.1-0.4,0.4,0,0.3L63.9,52.3z"/>
<path class="st5" d="M83.4,57.4l-8,8.8c0.1,0,0.2,0,0.3,0c0.2,0,0.4,0,0.6,0.1l7.1-7.8C83.4,58.1,83.4,57.7,83.4,57.4"/>
<path class="st5" d="M92.3,56.2c-0.5-0.3-0.9-0.5-1.4-0.8c0.2,0.3,0.3,0.6,0.4,0.9c0.2,0.1,0.4,0.3,0.7,0.4c0.5,0.3,0.9,0.7,1.3,1.1
	c0.3,0.4,0.5,0.8,0.5,1.3c0,0.5-0.1,0.9-0.2,1.4c-0.1,0.4-0.3,0.8-0.6,1.1c-0.3,0.3-0.7,0.6-1.1,0.7c-0.5,0.2-1.1,0.3-1.9,0.3
	c-0.8,0-1.6-0.2-2.3-0.5c-0.6-0.3-1.2-0.6-1.8-1.1c-1-0.2-1.7-0.9-2.1-1.7c0.1,0.6,0.5,1.3,1.2,1.9c0.8,0.6,1.6,1.1,2.4,1.5
	c0.8,0.4,1.7,0.5,2.6,0.5c0.8,0,1.5-0.1,2.1-0.3c0.6-0.2,1.1-0.5,1.4-0.9c0.3-0.4,0.6-0.8,0.7-1.3c0.1-0.5,0.2-1,0.2-1.5
	c0-0.6-0.2-1.2-0.6-1.7C93.3,57,92.9,56.6,92.3,56.2"/>
<path class="st5" d="M80.3,49.8c-1-1.1-1.7-2.4-2.2-3.7c-0.5-1.3-0.7-2.8-0.7-4.5c0-1.7,0.3-3.3,0.9-4.8c0.6-1.4,1.5-2.7,2.6-3.7
	c1.1-1,2.5-1.8,4-2.4c1.6-0.5,3.3-0.8,5.2-0.8c1.4,0,2.8,0.2,4.2,0.6c1,0.3,1.9,0.7,2.9,1.2c0.2,0.3,0.5,0.5,0.8,0.7
	c0.5,0.8,1.3,1.4,2.4,1.5c0.9,0.4,1.5,0.2,1.8,0.1c0,0,0,0,0,0c-0.2,0.3-0.3,0.5-0.5,0.8c-0.6,0.1-1.4,0-2.3-0.7l-0.1-0.1l-0.1-0.1
	l-0.1,0c-0.1,0-0.1-0.1-0.1-0.1l0,0c-0.4-0.4-0.9-0.7-1.3-1c-1.2-0.8-2.5-1.4-3.7-1.7c-1.3-0.4-2.6-0.5-4-0.5c-1.8,0-3.5,0.3-5,0.8
	c-1.5,0.5-2.8,1.3-3.8,2.2c-1,0.9-1.9,2.1-2.4,3.4c-0.6,1.3-0.8,2.9-0.8,4.5c0,1.6,0.2,3,0.7,4.3c0.5,1.3,1.1,2.4,2,3.5
	c0.9,1.1,2.1,2,3.4,2.9L80.3,49.8z"/>
<path class="st5" d="M89.8,45.2c0.6,0.3,1.4,0.6,2.2,0.9c1.2,0.4,2.3,0.9,3.3,1.4c0.5,0.7,1.3,1.2,2.4,1.2c0,0,0.1,0,0.1,0
	c0.2,0.6,0.6,1.2,1.2,1.6c0,0,0,0,0,0c-0.8-0.6-1.6-1.2-2.6-1.7c-1.4-0.7-2.9-1.4-4.5-2c-0.9-0.3-1.6-0.6-2.3-0.9
	c-0.7-0.3-1.2-0.6-1.7-0.9c-0.5-0.3-0.8-0.7-1.1-1.1L89.8,45.2z"/>
<path class="st5" d="M92.1,39.3c0.5,0.2,1,0.4,1.4,0.7c0.2,0.1,0.4,0.3,0.6,0.4c1.1,0.9,1.3,1.9,1.4,2.6c-0.3,0.3-0.5,0.7-0.6,1.1
	L94.7,44l0.1-0.2c0-0.1,0.5-1.5-1.1-2.9L92.1,39.3z"/>
<path class="st5" d="M78.5,67.7c0.1,0.1,0.2,0.2,0.3,0.3l0,0c0.2,0.2,0.4,0.4,0.6,0.6c0.6,0.5,1.1,0.9,1.7,1.3c0.5,0,1,0.2,1.5,0.5
	c0.4,0.3,1,0.4,1.7,0.5c-1.6-0.7-3.1-1.7-4.5-2.9c-0.2-0.2-0.5-0.4-0.7-0.6l0,0c-1-0.9-1.9-1.1-2.5-1.1C77.5,66.5,78.1,67,78.5,67.7
	"/>
<path class="st6" d="M12.1,71.7H0v-1l0.2-0.1c0.1,0,1.5-0.6,1.5-2.6V34c0-2-1.5-2.6-1.5-2.6L0,31.4v-1l12.5,0
	c3.4,0.1,6.4,1.1,8.8,2.9c2.7,1.9,4,4.4,4,7.2l0,21.2c0,2.8-1.4,5.2-4,7.1c-2.5,1.8-5.4,2.8-8.9,2.9v0L12.1,71.7z M0.9,71l11.3,0
	c3.5-0.1,6.4-1,8.8-2.8c2.5-1.8,3.7-4,3.7-6.6l0-21.2c0-2.6-1.3-4.8-3.8-6.6c-2.4-1.8-5.4-2.7-8.8-2.8l-1.7,0H0.9
	c0.6,0.4,1.5,1.2,1.5,3v34C2.4,69.8,1.4,70.7,0.9,71 M12,64.1l-1.9,0V37.8l1.9,0c1.4,0,2.6,0.4,3.6,1.1c1,0.8,1.5,1.7,1.5,2.8
	l0,18.6c0,1.1-0.5,2-1.5,2.8C14.6,63.7,13.4,64.1,12,64.1 M10.8,63.4l1.2,0c1.3,0,2.3-0.3,3.2-1c0.8-0.6,1.3-1.3,1.3-2.2l0-18.6
	c0-0.9-0.4-1.6-1.3-2.2c-0.9-0.6-1.9-1-3.2-1l-1.2,0V63.4z"/>
<path class="st6" d="M38.9,71.7H26.4v-1l0.2-0.1c0.1,0,1.5-0.6,1.5-2.6V34c0-2-1.4-2.6-1.5-2.6l-0.2-0.1l0-1h12.5v1l-0.2,0.1
	c-0.1,0-1.5,0.6-1.5,2.6v34c0,2,1.5,2.6,1.5,2.6l0.2,0.1V71.7z M27.3,71H38c-0.6-0.4-1.5-1.2-1.5-3V34c0-1.8,0.9-2.6,1.5-3H27.3
	c0.6,0.4,1.5,1.2,1.5,3v34C28.8,69.8,27.9,70.7,27.3,71"/>
<path class="st6" d="M74.1,71.7H61.7v-1l0.2-0.1c0.1,0,1.5-0.6,1.5-2.6V52l-6.2,12.6L51,52V68c0,2,1.4,2.6,1.5,2.6l0.2,0.1l0,1H40.2
	v-1l0.2-0.1c0.1,0,1.5-0.6,1.5-2.6V34c0-2-1.4-2.6-1.5-2.6l-0.2-0.1l0-1h10.6l6.3,14.4l6.3-14.4h10.6v1l-0.2,0.1
	c-0.1,0-1.5,0.6-1.5,2.6v34c0,2,1.4,2.6,1.5,2.6l0.2,0.1L74.1,71.7z M62.5,71h10.7c-0.6-0.4-1.5-1.2-1.5-3V34c0-1.8,0.9-2.6,1.5-3
	h-9.3l-6.7,15.4L50.5,31h-9.3c0.6,0.4,1.5,1.2,1.5,3v34c0,1.8-0.9,2.6-1.5,3h10.7c-0.6-0.4-1.5-1.2-1.5-3V49.1L57.2,63L64,49.1V68
	C64,69.8,63.1,70.7,62.5,71"/>
<path class="st6" d="M99.3,33.3c1.3,1,2.4,0.4,2.4,0.4l0.2-0.1l0.8,0.6l-1.5,2l0,0l-6.3,8.3l-0.7-0.7l0.1-0.2c0-0.1,0.5-1.5-1.1-2.9
	c-0.2-0.1-0.4-0.3-0.6-0.4c-0.4-0.3-0.9-0.5-1.3-0.6c-0.9-0.3-1.9-0.3-2.7-0.1c-0.4,0.1-0.8,0.2-1.1,0.4c-0.3,0.2-0.5,0.4-0.7,0.7
	c-0.2,0.3-0.3,0.7-0.3,1.1s0.1,0.8,0.3,1.2c0.2,0.3,0.5,0.6,0.9,0.9c0.4,0.3,0.9,0.6,1.6,0.9c0.6,0.3,1.4,0.6,2.2,0.9
	c1.6,0.6,3.2,1.3,4.6,2c1.4,0.7,2.7,1.6,3.7,2.5c1,1,1.9,2.2,2.4,3.6c0.6,1.4,0.9,3,0.9,5c0,2-0.4,3.9-1.1,5.6
	c-0.7,1.7-1.7,3.1-3,4.3c-1.2,1.2-2.7,2.1-4.4,2.7c-1.7,0.6-3.5,1-5.4,1c-1.8,0-3.6-0.4-5.4-1.2c-1.7-0.8-3.4-1.8-4.9-3.1
	c-0.2-0.2-0.4-0.4-0.6-0.6l0,0c-1.5-1.4-2.6-0.9-2.7-0.9l-0.2,0.1l-0.7-0.7l8.6-9.5l0.7,0.7l-0.1,0.2c0,0.1-0.7,1.6,0.9,2.9
	c0.7,0.6,1.5,1,2.2,1.4c0.7,0.3,1.5,0.5,2.3,0.5c0.7,0,1.4-0.1,1.9-0.3c0.5-0.2,0.9-0.4,1.1-0.7c0.3-0.3,0.5-0.7,0.6-1.1
	c0.1-0.4,0.2-0.9,0.2-1.4c0-0.5-0.2-0.9-0.5-1.3c-0.3-0.4-0.8-0.8-1.3-1.1c-0.5-0.3-1-0.6-1.6-0.9c-0.6-0.2-1.1-0.4-1.5-0.6
	c-1.9-0.8-3.5-1.6-5-2.5c-1.4-0.9-2.6-1.9-3.6-3c-1-1.1-1.7-2.4-2.2-3.7c-0.5-1.3-0.7-2.8-0.7-4.5c0-1.7,0.3-3.3,0.9-4.8
	c0.6-1.4,1.5-2.7,2.6-3.7c1.1-1,2.5-1.8,4-2.4c1.6-0.5,3.3-0.8,5.2-0.8c1.4,0,2.8,0.2,4.2,0.6c1.3,0.4,2.6,1,3.9,1.8
	c0.4,0.3,0.9,0.6,1.3,1l0,0L99.3,33.3L99.3,33.3z M98.8,33.7L98.8,33.7c-0.1-0.1-0.1-0.1-0.2-0.1l0,0c-0.4-0.4-0.9-0.7-1.3-1
	c-1.2-0.8-2.5-1.4-3.7-1.7c-1.3-0.4-2.6-0.5-4-0.5c-1.8,0-3.5,0.3-5,0.8c-1.5,0.5-2.8,1.3-3.8,2.2c-1,0.9-1.9,2.1-2.4,3.4
	c-0.6,1.3-0.9,2.9-0.9,4.5c0,1.6,0.2,3,0.7,4.3c0.5,1.3,1.1,2.4,2,3.5c0.9,1.1,2.1,2,3.4,2.9c1.4,0.9,3,1.7,4.8,2.5
	c0.4,0.2,0.9,0.4,1.5,0.6c0.6,0.3,1.2,0.6,1.7,0.9c0.6,0.4,1,0.8,1.4,1.3c0.4,0.5,0.6,1.1,0.6,1.7c0,0.5-0.1,1.1-0.2,1.5
	c-0.1,0.5-0.4,1-0.7,1.3c-0.3,0.4-0.8,0.7-1.4,0.9c-0.6,0.2-1.3,0.3-2.1,0.3c-0.9,0-1.8-0.2-2.6-0.5c-0.8-0.3-1.6-0.8-2.4-1.5
	c-1.4-1.2-1.4-2.5-1.2-3.2L75.7,66c0.6-0.1,1.7-0.1,3,1.1l0,0c0.2,0.2,0.4,0.4,0.7,0.6c1.5,1.2,3.1,2.2,4.7,3
	c1.7,0.7,3.4,1.1,5.1,1.1c1.8,0,3.6-0.3,5.2-0.9c1.6-0.6,3-1.5,4.2-2.6c1.2-1.1,2.1-2.5,2.8-4.1c0.7-1.6,1-3.4,1-5.3
	c0-1.8-0.3-3.4-0.8-4.7c-0.5-1.3-1.3-2.4-2.3-3.3c-1-0.9-2.2-1.8-3.5-2.4c-1.4-0.7-2.9-1.4-4.5-2c-0.9-0.3-1.6-0.6-2.3-0.9
	c-0.7-0.3-1.2-0.6-1.7-0.9c-0.5-0.3-0.8-0.7-1.1-1.1c-0.2-0.4-0.4-0.9-0.4-1.5c0-0.6,0.1-1.1,0.3-1.5c0.2-0.4,0.5-0.7,0.9-1
	c0.4-0.2,0.8-0.4,1.3-0.5c0.9-0.2,2.1-0.3,3.1,0.1c0.5,0.2,1,0.4,1.4,0.7c0.2,0.1,0.4,0.3,0.6,0.4c1.3,1.2,1.4,2.4,1.4,3.1l6.7-8.8
	c-0.5,0.2-1.6,0.3-2.8-0.6L98.8,33.7L98.8,33.7z"/>
</svg>
