<?xml version="1.0" encoding="utf-8"?>
<!-- Generator: Adobe Illustrator 19.1.0, SVG Export Plug-In . SVG Version: 6.00 Build 0)  -->
<svg version="1.1" id="Layer_1" xmlns="http://www.w3.org/2000/svg" xmlns:xlink="http://www.w3.org/1999/xlink" x="0px" y="0px"
	 viewBox="0 0 278.6 129.1" style="enable-background:new 0 0 278.6 129.1;" xml:space="preserve">
<style type="text/css">
	.st0{fill:#C07D12;}
	.st1{fill:#9F5620;}
	.st2{fill:#7B2E00;}
	.st3{fill:#353435;}
	.st4{fill:#404041;}
	.st5{fill:#231F20;}
	.st6{fill:#F1F1F2;}
</style>
<path class="st0" d="M277.3,104L277.3,104c0.9-3.2,1.3-6.6,1.3-10.3c0-5-0.8-9.4-2.3-13c-1.5-3.6-3.7-6.7-6.4-9.2l-9.7-9
	c-2.7-2.5-5.9-4.8-9.6-6.6c-3.6-1.8-7.7-3.6-12-5.3c-1.1-0.4-2.2-0.9-3.2-1.3c0-0.4,0.1-0.7,0.1-1.1c0.5-2.2,1.9-3.3,2.8-3.9
	c0.7-0.4,1.5-0.7,2.4-0.9c1.6-0.4,3.4-0.5,5.3-0.2c0,0.8-0.2,1.4-0.2,1.4l-0.2,0.5l1.8,1.9l9.7,9l11.6-15.2l4.8-6.4l0,0l3.9-5.1
	l-9.7-9l-2-1.5l-0.5,0.3c0,0-2.8,1.6-6.3-1l-0.2-0.1l-0.6-0.5l0,0c-1.2-0.9-2.3-1.8-3.4-2.5c-3.3-2.2-6.8-3.8-10.2-4.8
	c-3.4-1-7.1-1.5-10.8-1.5c-5,0-9.5,0.7-13.6,2.2c-4.1,1.4-7.6,3.5-10.5,6.1c-2.9,2.6-5.2,5.9-6.7,9.6c-1.6,3.7-2.3,7.9-2.3,12.4
	c0,4.3,0.6,8.2,1.9,11.7c1.2,3.5,3.1,6.7,5.6,9.6c1.4,1.6,3.1,3.2,4.9,4.7l-0.3-0.1l7,6.4c0.7,0.7,1.5,1.5,2.3,2.2l0,0v0
	c1.5,1.3,3.2,2.5,5.1,3.7c3.7,2.3,8,4.5,12.9,6.5c0.8,0.3,1.8,0.7,2.8,1.2c0,1.2-0.2,2.4-0.5,3.5c-0.3,1.1-0.8,2-1.5,2.8
	c-0.7,0.8-1.7,1.5-3,1.9c-1.3,0.5-2.9,0.8-4.9,0.8c-1.7,0-3.3-0.3-4.8-0.8c-0.1-1.5,0.3-2.6,0.4-2.7l0.2-0.6l-1.9-1.8l0,0l-9.7-9
	l-18.5,20.4V70.5V29.2c0.1-5.3,3.7-6.7,3.9-6.8l0.6-0.2v-2.6l-9.7-9h-27.7l-13.5,30.8l-9.6-21.8l-9.7-9h-27.7l0,2.6l0.6,0.2
	c0.1,0,2.5,1,3.5,4.2l-7.5-7H69.3l0,2.6l0.6,0.2c0.2,0.1,3.8,1.5,3.9,6.8v16c-1.8-3.3-4.4-6.3-8.1-8.9c-0.9-0.6-1.7-1.2-2.6-1.7
	c-1.7-2.6-4.1-5.1-7.1-7.3c-6.4-4.6-14.1-7.2-23-7.5L0.4,10.6v2.6L1,13.4c0,0,3.8,1.4,3.9,6.8v88.5c-0.1,5.3-3.7,6.7-3.9,6.8
	l-0.6,0.2v2.6l9.7,9h31.6l0.9,0v0c9-0.3,16.8-2.8,23.2-7.5c1.3-0.9,2.4-1.9,3.5-3v1.5l9.7,9h32.5v-2.6l-3.7-3.4l0-0.7l7.2,6.7h32.5
	l0-2.6l-3.7-3.4c-0.2-0.3-0.3-0.7-0.4-1.1c-0.2-1.1-0.4-2.5-0.4-2.5v-23v-8.2l6.4,12.9l9.7,9l6.4-12.9v13.1
	c-0.1,5.3-3.7,6.7-3.9,6.8l-0.6,0.2v2.6l9.7,9h32.5l0-2.6l-3.3-3.1c-1.1-1.5-1.1-5.5-1.1-5.5v-8.8l7.7,7.1l0.5-0.2
	c0.1-0.1,3.2-1.4,7,2.4l0,0c0.5,0.5,1.1,1,1.7,1.5c3.9,3.3,8.2,6,12.8,8c4.6,2,9.3,3,14.1,3c5,0,9.8-0.8,14.2-2.5
	c4.4-1.7,8.2-4.1,11.5-7.1c3.2-3.1,5.8-6.8,7.7-11.2c0.4-0.8,0.7-1.7,0.9-2.6C277,105.2,277.1,104.6,277.3,104 M71.4,114.4
	c0.5-0.6,1-1.3,1.4-2C72.4,113.3,71.9,113.9,71.4,114.4 M109.6,108.7c0,2.7-1,4.4-2,5.4L107,71.6V29.2c0-3.3,1.5-5.1,2.6-6V108.7z
	 M38.2,95.3L38.2,95.3l0-26.2l0,0V40.7l5,0.2l0.1,47.7c0,2.3-1.1,4.1-3.3,5.8C39.4,94.7,38.8,95,38.2,95.3L38.2,95.3z"/>
<path class="st1" d="M75.8,92.4l-0.1-55.3c0-7.3-3.5-13.6-10.5-18.7c-6.4-4.6-14.1-7.2-23-7.5L9.7,10.9v2.6l0.6,0.2
	c0,0,3.8,1.4,3.9,6.8v88.4L0,109.5l9.7,9h31.6l0.9,0v0c9-0.3,16.8-2.8,23.2-7.5C72.3,105.9,75.8,99.6,75.8,92.4 M49.3,94.5
	C47.1,96.2,44.3,97,41,97l-3.2,0V31.9l3.1,0c3.3,0,6.1,0.9,8.3,2.5c2.2,1.6,3.3,3.5,3.3,5.8l0.1,48.5C52.6,91,51.5,92.9,49.3,94.5"
	/>
<path class="st1" d="M276,72c-1.5-3.6-3.7-6.7-6.4-9.2l-9.7-9l-0.1,2.3c-3.6-1.8-7.5-3.5-11.7-5.2c-2.2-0.8-4.2-1.6-5.8-2.4
	c-1.6-0.7-3-1.5-4.1-2.3c-1-0.8-1.8-1.6-2.3-2.4c-0.5-0.8-0.7-1.9-0.7-3c0-1.2,0.2-2.2,0.7-3c0.5-0.8,1.1-1.5,1.8-1.9
	c0.8-0.5,1.7-0.9,2.8-1.1c1.9-0.4,4.2-0.5,6.4,0.1l-1.5,1.7l11.6,10.9l16.4-21.6l0,0l3.9-5.1l-9.7-9l-3.3,3.7c0,0,0,0,0,0
	c-3.3-2.2-6.8-3.8-10.2-4.8c-3.4-1-7.1-1.5-10.8-1.5c-5,0-9.5,0.7-13.6,2.2c-4.1,1.4-7.6,3.5-10.5,6.1c-2.9,2.6-5.2,5.9-6.7,9.6
	c-1.6,3.7-2.3,7.9-2.3,12.4c0,4.3,0.6,8.2,1.9,11.7c0.7,2.1,1.7,4,2.9,5.9l-2.4-0.7l7,6.4c0.7,0.7,1.5,1.5,2.3,2.2l0,0v0
	c1.5,1.3,3.2,2.6,5.1,3.7c3.7,2.3,8,4.5,12.9,6.5c1.1,0.4,2.4,1,3.9,1.6c1.5,0.6,2.9,1.4,4.2,2.2c1.3,0.8,2.4,1.8,3.3,2.9
	c0.8,1,1.2,2.1,1.2,3.4c0,1.2-0.2,2.4-0.5,3.5c-0.3,1.1-0.8,2-1.5,2.8c-0.7,0.8-1.7,1.5-3,1.9c-1.3,0.5-2.9,0.8-4.9,0.8
	c-2.1,0-4.1-0.4-6-1.3c-1.9-0.8-3.9-2.1-5.8-3.6c-4.1-3.4-2.4-7.5-2.3-7.7l0.2-0.6l-1.9-1.8l0,0l-9.7-9L198.3,94V20.4
	c0.1-5.3,3.7-6.7,3.9-6.8l0.6-0.2v-2.6l-9.7-9l-4.8,2.7l-1.6,6.4h-11.6l-16.4,37.4l-16.4-37.4l-9.7-9l1.2,9h-19.2l0,2.6l0.6,0.2
	c0.2,0.1,3.8,1.5,3.9,6.8v87.9l-12.3,1c0-0.1,0-0.2,0-0.3V20.4c0.1-5.3,3.7-6.7,3.9-6.8l0.6-0.2v-2.6l-9.7-9l-5.8,1.4l-0.6,7.7H78.6
	l0,2.6l0.6,0.2c0.2,0.1,3.8,1.5,3.9,6.8v87.9l-14.2,1.1l9.7,9h32.5v-2.6l-3.7-3.4c-0.1-0.3-0.2-0.6-0.3-1l7.5,7H147l0-2.6l-3.7-3.4
	c-0.4-0.9-0.7-2.1-0.8-3.6V67.1l8.6,17.4l-2.2,6.2l9.7,9l16.1-32.7v41.2l-14.2,1.1l9.7,9h32.5l0-2.6l-3.7-3.4
	c-0.4-0.9-0.7-2.1-0.8-3.6V98.6l7.7,7.1l0.5-0.2c0.1-0.1,3.1-1.4,7,2.4l0,0c0.5,0.5,1.1,1,1.7,1.5c3.9,3.3,8.2,6,12.8,8
	c4.6,2,9.3,3,14.1,3c5,0,9.8-0.8,14.2-2.5c4.4-1.7,8.2-4.1,11.5-7.1c3.2-3.1,5.8-6.8,7.7-11.2c1.9-4.3,2.8-9.2,2.8-14.6
	C278.2,79.9,277.5,75.5,276,72"/>
<path class="st2" d="M227.9,26.1l-2.9,2.6l-0.2,6.1l3.7,3.3l6.5,2.9c0-4.5,3.8-5.9,3.8-5.9s-7.6-2.1-6-10.6c1.6-8.5,0,0,0,0
	L227.9,26.1z"/>
<path class="st2" d="M158.6,99.8l9.8-20c0,0-6.6,3.2-10.8-8.9l-8.8,19.8L158.6,99.8z"/>
<path class="st2" d="M143.3,112.5l-6.1-5.6c0,0-4-0.1-4.8-6.1c-0.8-6-0.3-23-0.3-23s5.4,13.1,10.4,8.2v23
	C142.5,109,142.8,112,143.3,112.5"/>
<path class="st2" d="M199.7,113.1l-6.6-6.2c0,0-4.6-0.4-5.3-7c-0.7-6.6,0-41.1,0-41.1s7.5,10.5,10.6,2.9v45.6
	C198.3,107.4,198.4,111.9,199.7,113.1"/>
<path class="st2" d="M247.2,38.4l9.7,9l11.6-15.2c0,0-7.1,0.6-9.3-10L247.2,38.4z"/>
<polygon class="st2" points="101.3,4.4 111.1,13.5 111.1,10.9 101.3,1.9 "/>
<path class="st2" d="M37.8,31.9l-9.7-9l3.4-0.7c0,0,11.6,1.1,12,10L37.8,31.9z"/>
<path class="st2" d="M198.3,98.6l7.7,7.1L198.3,98.6z"/>
<path class="st2" d="M213.6,107.8L213.6,107.8c0.5,0.5,1.1,1,1.7,1.5c3.9,3.3,8.2,6,12.8,8c4.6,2,9.3,3,14.1,3c5,0,9.8-0.8,14.2-2.5
	c4.4-1.7,8.2-4.1,11.5-7.1c3.2-3.1,5.8-6.8,7.7-11.2c0.6-1.4,1.1-2.8,1.5-4.3c-0.4,0.2-8.9,4.8-12-5.1c0,0-7.6,20.3-32.5,20.3
	c0,0-14.2-1.5-17.8-5.1l-5.9-3.6l-4.8-4.3l-3.1-1.7l-3.5-0.3l-1,1.3l2.1,1.9l7.7,7.1l0.5-0.2C206.7,105.4,209.7,104.1,213.6,107.8"
	/>
<path class="st2" d="M107.4,112.5l-6-5.6c0,0-5.3-1.3-5.3-7C96,94.3,96,59.4,96,59.4s7.1,10.2,10.7,3.4L107.4,112.5z"/>
<path class="st2" d="M28,87.9l5.5,0.4l4.3-1.8V60.3c0,0-3.7,7.9-10.1-0.9L28,87.9z"/>
<path class="st2" d="M42.2,118.5L42.2,118.5c9-0.3,16.8-2.9,23.2-7.5c6.9-5.1,10.5-11.3,10.5-18.6c-4.7,7-11.5-2.1-11.5-2.1
	c-5.6,17.3-32.8,19.2-32.8,19.2H0l9.7,9h31.6L42.2,118.5z"/>
<path class="st3" d="M55,10.1C48.5,5.4,40.7,3,31.6,2.8v0h-4.4H5.3H0.9v1.1c0,0,4.4,1.6,4.4,7.6v88.5c-0.1,6-4.4,7.6-4.4,7.6v1.1
	h4.4h21.8h4.4v0c9.2-0.2,17-2.6,23.5-7.4c6.7-4.9,10.1-10.9,10.1-17.9l-0.1-55.3C65.1,21,61.7,15,55,10.1 M40.1,86.2
	c-2.4,1.8-5.4,2.7-8.8,2.7l-4.1,0V22l4,0c3.5,0,6.4,0.9,8.8,2.7c2.4,1.8,3.6,4,3.6,6.5l0.1,48.5C43.7,82.2,42.5,84.4,40.1,86.2"/>
<path class="st3" d="M74.2,2.7h-4.4v1.1c0,0,4.4,1.6,4.4,7.6v88.5c-0.1,6-4.4,7.6-4.4,7.6v1.1h4.4H96h4.4v-1.1c0,0-4.4-1.6-4.4-7.6
	V11.4c0.1-6,4.4-7.6,4.4-7.6V2.7H96H74.2z"/>
<path class="st3" d="M165.9,2.7l-17,38.7l-17-38.7h-21.8h-4.4v1.1c0,0,4.4,1.6,4.4,7.6v88.5c-0.1,6-4.4,7.6-4.4,7.6v1.1h4.4h21.8
	h4.4v-1.1c0,0-4.4-1.6-4.4-7.6V54.3l17,34.4l17-34.4v45.6c-0.1,6-4.4,7.6-4.4,7.6v1.1h4.4h21.8h4.4v-1.1c0,0-4.4-1.6-4.4-7.6V11.4
	c0.1-6,4.4-7.6,4.4-7.6V2.7h-4.4H165.9z"/>
<path class="st3" d="M265.4,63.3c-1.5-3.5-3.5-6.5-6.2-9c-2.6-2.5-5.8-4.7-9.4-6.5c-3.6-1.8-7.6-3.6-11.9-5.2
	c-2.2-0.9-4.2-1.7-5.9-2.4c-1.7-0.7-3.1-1.5-4.2-2.4c-1.1-0.8-2-1.7-2.6-2.7c-0.6-1-0.8-2.1-0.8-3.5c0-1.3,0.3-2.5,0.8-3.4
	c0.5-0.9,1.2-1.7,2.1-2.2c0.9-0.6,1.9-1,3.1-1.2c1.2-0.3,2.4-0.4,3.8-0.4c1.3,0,2.6,0.2,3.8,0.7c1.3,0.5,2.4,1,3.6,1.7
	c0.5,0.3,1.1,0.7,1.6,1.1c4.6,4,3,8.4,3,8.4l0.8,0.8l2.6-3.4l13.8-18.1l0,0l2.7-3.6l-0.9-0.7c0,0-3.3,2-7.3-1
	c-0.1-0.1-0.1-0.1-0.2-0.2c-0.1-0.1-0.2-0.1-0.3-0.2c-0.1-0.1-0.3-0.2-0.4-0.3l0.1,0.1c-1.1-0.9-2.2-1.7-3.4-2.5
	c-3.3-2.1-6.6-3.7-10-4.7c-3.4-1-6.9-1.5-10.6-1.5c-4.9,0-9.3,0.7-13.3,2.1c-4,1.4-7.4,3.4-10.2,6c-2.8,2.6-5,5.7-6.5,9.3
	c-1.5,3.6-2.3,7.6-2.3,12c0,4.2,0.6,8,1.8,11.4c1.2,3.4,3,6.5,5.5,9.3c2.4,2.8,5.5,5.4,9.1,7.7c3.6,2.3,7.9,4.5,12.8,6.5
	c1.1,0.4,2.4,1,3.9,1.6c1.5,0.6,2.9,1.4,4.3,2.3c1.4,0.9,2.5,1.9,3.5,3.1c1,1.2,1.4,2.5,1.4,4c0,1.3-0.2,2.6-0.5,3.8
	c-0.3,1.2-0.9,2.2-1.7,3.1c-0.8,0.9-1.9,1.6-3.3,2.2c-1.4,0.5-3.1,0.8-5.2,0.8c-2.2,0-4.4-0.5-6.4-1.4c-2-0.9-4-2.1-6-3.7
	c-4.6-3.9-2.6-8.7-2.6-8.7l-0.8-0.8l-3,3.4l-15.2,16.7l-3,3.3l0.8,0.8c0,0,3.6-1.7,8,2.5l-0.1-0.2c0.6,0.5,1.1,1.1,1.8,1.6
	c3.9,3.3,8.1,5.9,12.6,7.9c4.5,2,9.1,2.9,13.7,2.9c4.9,0,9.6-0.8,13.8-2.5c4.3-1.6,8-4,11.2-7c3.2-3,5.7-6.6,7.5-10.9
	c1.8-4.3,2.7-9,2.7-14.2C267.6,71,266.9,66.8,265.4,63.3"/>
<polygon class="st2" points="68.9,109.5 78.6,118.5 111.1,118.5 101.3,109.5 "/>
<polygon class="st2" points="104.8,109.5 137.2,109.5 147,118.5 114.5,118.5 "/>
<polygon class="st2" points="160.6,109.5 193,109.5 202.8,118.5 170.3,118.5 "/>
<polygon class="st2" points="193,4.4 202.8,13.5 202.8,10.9 193,1.9 "/>
<path class="st4" d="M0.9,107.5v1.1h4.4h21.8h4.4v0c9.2-0.2,17-2.6,23.5-7.4c6.7-4.9,10.1-10.9,10.1-17.9l0-13.6
	c-7.4,1.3-14.6,2.1-21.5,2.5l0,7.4c0,2.5-1.2,4.7-3.6,6.5c-2.4,1.8-5.4,2.7-8.8,2.7l-4.1,0V72.6c-8-0.2-15.3-0.8-21.8-1.6v29
	C5.2,105.9,0.9,107.5,0.9,107.5"/>
<path class="st4" d="M69.7,107.5v1.1h4.4H96h4.4v-1.1c0,0-4.4-1.6-4.4-7.6V61.3c-7.4,2.8-14.7,4.9-21.8,6.6v32
	C74.1,105.9,69.7,107.5,69.7,107.5"/>
<path class="st4" d="M105.6,107.5v1.1h4.4h21.8h4.4v-1.1c0,0-4.4-1.6-4.4-7.6V54.4l17,34.4l17-34.4v45.6c-0.1,6-4.4,7.6-4.4,7.6v1.1
	h4.4h21.8h4.4v-1.1c0,0-4.4-1.6-4.4-7.6V46.8c-27.3-0.3-55.1,2.1-77.6,9.3v43.8C110,105.9,105.6,107.5,105.6,107.5"/>
<path class="st4" d="M217.5,58.6c3.6,2.3,7.9,4.5,12.8,6.5c1.1,0.4,2.4,1,3.9,1.6c1.5,0.6,2.9,1.4,4.3,2.3c1.4,0.9,2.5,1.9,3.5,3.1
	c1,1.2,1.4,2.5,1.4,4c0,1.3-0.2,2.6-0.5,3.8c-0.3,1.2-0.9,2.2-1.7,3.1c-0.8,0.9-1.9,1.6-3.3,2.2c-1.4,0.5-3.1,0.8-5.2,0.8
	c-2.2,0-4.4-0.5-6.4-1.4c-2-0.9-4-2.1-6-3.7c-4.6-3.9-2.6-8.7-2.6-8.7l-0.8-0.8l-3,3.4l-15.2,16.7l-3,3.3l0.8,0.8c0,0,3.6-1.7,8,2.5
	l-0.1-0.2c0.6,0.5,1.1,1.1,1.8,1.6c3.9,3.3,8.1,5.9,12.6,7.9c4.5,2,9.1,2.9,13.7,2.9c4.9,0,9.6-0.8,13.8-2.5c4.3-1.6,8-4,11.2-7
	c3.2-3,5.7-6.6,7.5-10.9c1.8-4.3,2.7-9,2.7-14.2c0-4.9-0.7-9.2-2.2-12.6c-1.5-3.5-3.5-6.5-6.2-9c-0.6-0.5-1.2-1-1.8-1.5
	c-15.1-2.4-33-4.4-51.7-5.4c0.8,1.2,1.6,2.4,2.6,3.5C210.9,53.8,213.9,56.3,217.5,58.6"/>
<path class="st5" d="M45.9,32.1c0-2.8-1.3-5.2-4-7.2c-1.6-1.2-3.5-2-5.5-2.4c0.3,0.2,0.6,0.5,0.8,0.8c0.9,0.6,1.7,1.3,2.3,2.2
	c0.5,0.3,1,0.5,1.4,0.9c2.2,1.6,3.3,3.5,3.3,5.8l0.1,48.5c0,2.3-1.1,4.1-3.3,5.8c-2.3,1.7-5.1,2.5-8.3,2.5l-3.2,0v-0.7
	c-0.6,0.1-1.1-0.2-1.7-0.2v2.6l5,0c3.6,0,6.8-1,9.4-2.8c2.7-1.9,4-4.3,4-7.2L45.9,32.1z"/>
<path class="st5" d="M57.1,11.8c-1.6-0.8-2.8-2-3.6-3.5C47.8,5,41.2,3.1,33.8,2.9L1.4,2.8v0.8c0.9,0.8,1.6,1.8,2,2.9
	c1.1,0.9,2.4,2.7,2.4,5.8v88.5c-0.1,5.3-3.7,6.7-3.9,6.8l-0.6,0.2v1.5c5.4,0,11-0.1,16.4-0.7l-14.1,0c1.5-0.9,3.8-3.2,3.9-7.8V12.3
	C7.5,7.7,5.1,5.5,3.7,4.5h24.9l4.4,0c8.9,0.2,16.6,2.6,22.9,7.2c0.5,0.3,0.9,0.7,1.4,1.1c0,0,0,0,0,0C57.2,12.5,57.1,12.1,57.1,11.8
	"/>
<path class="st5" d="M99.8,109.1c0.4,0,0.7,0,1.1,0l-0.5-0.5"/>
<path class="st5" d="M100.4,4.5H72.5c1.5,0.9,3.8,3.2,3.9,7.8v88.6c-0.1,4.6-2.4,6.8-3.9,7.8l-2.3,0.4v-1.3l0.6-0.2
	c0.2-0.1,3.8-1.5,3.9-6.8V12.3c0-2.6-0.9-4.3-1.9-5.3c-0.6-1.2-1.4-2.2-2.6-3l0-1.3H101L100.4,4.5z"/>
<path class="st5" d="M150,87.3l-17.6-35.7v4.6c0.4,0.5,0.7,1,1,1.6c0.3,0.5,0.5,1,0.7,1.5V59l14.5,29.3
	C149.1,87.9,149.5,87.6,150,87.3"/>
<path class="st5" d="M110.3,108.7c0.3,0,0.6,0,1,0c5.4,0,11,0.4,16.4,0H110C110.1,108.7,110.2,108.7,110.3,108.7"/>
<path class="st5" d="M132.6,2.8h-26.5l0.3,2l0.6,0.5c0.2,0.1,3.5,1.8,3.5,7.1v88.5c-0.1,5.3-3.7,6.7-3.9,6.8l-0.6,0.2v0.9
	c0.7-0.2,1.4-0.3,2.2-0.3c0.1,0,0.2,0,0.3,0c1.5-1,3.7-3.2,3.7-7.7V12.3c-0.1-4.6-2.4-6.8-3.9-7.8h24.3l0.6,1.4
	c0.1-0.2,0.2-0.5,0.3-0.7C133.2,4.5,132.8,3.7,132.6,2.8"/>
<path class="st5" d="M166.7,2.8l-16.4,37.4l-0.4-1c-0.4,0.6-0.8,1.1-1.2,1.6l1.6,3.8l17.5-40h22.5c0.4-0.6,0.9-1.2,1.5-1.7H166.7z"
	/>
<path class="st5" d="M166.4,59v41.9c-0.1,5.3-3.7,6.7-3.9,6.8l-0.6,0.2v0.9c0.9-0.2,1.9-0.3,2.9-0.5c1.4-1.1,3.3-3.3,3.3-7.4V51.6
	l-2.6,5.4c0.7-0.3-0.9,1-0.1,0.9L166.4,59z"/>
<path class="st5" d="M217.3,72.2l-20.8,22.8c0.2,0,0.4,0,0.7,0c0.6,0,1.1,0.1,1.6,0.1l18.5-20.3C217.2,74,217.2,73.1,217.3,72.2"/>
<path class="st5" d="M240.4,69.2c-1.2-0.8-2.4-1.4-3.7-2c0.5,0.8,0.8,1.6,1,2.5c0.6,0.3,1.2,0.7,1.7,1c1.3,0.8,2.4,1.8,3.3,2.9
	c0.8,1,1.2,2.1,1.2,3.4c0,1.2-0.2,2.4-0.5,3.5c-0.3,1.1-0.8,2-1.5,2.8c-0.7,0.8-1.7,1.5-3,1.9c-1.3,0.5-2.9,0.8-4.9,0.8
	c-2.1,0-4.1-0.4-6-1.3c-1.5-0.7-3.1-1.6-4.7-2.7c-2.6-0.6-4.4-2.4-5.4-4.5c0.3,1.6,1.2,3.4,3.2,5c2.1,1.6,4.2,2.9,6.2,3.8
	c2.1,1,4.4,1.4,6.7,1.4c2.2,0,4-0.3,5.5-0.9c1.5-0.6,2.7-1.4,3.6-2.4c0.9-1,1.5-2.2,1.9-3.5c0.4-1.3,0.6-2.6,0.6-4
	c0-1.7-0.5-3.2-1.6-4.5C243,71.3,241.8,70.2,240.4,69.2"/>
<path class="st5" d="M209.2,52.5c-2.5-2.9-4.4-6.1-5.6-9.6c-1.2-3.5-1.9-7.4-1.9-11.7c0-4.5,0.8-8.7,2.3-12.4
	c1.6-3.7,3.8-6.9,6.7-9.6c2.9-2.6,6.4-4.7,10.5-6.1c4-1.4,8.6-2.2,13.6-2.2c3.7,0,7.4,0.5,10.8,1.5c2.5,0.7,5,1.8,7.5,3.2
	c0.6,0.7,1.3,1.4,2.1,1.8c1.2,2.1,3.3,3.6,6.4,3.9c2.2,1,4,0.4,4.6,0.2c0,0,0,0,0,0c-0.4,0.7-0.8,1.4-1.2,2.1
	c-1.5,0.2-3.6-0.1-5.9-1.8l-0.2-0.1l-0.2-0.1l-0.1-0.1c-0.1-0.1-0.2-0.2-0.3-0.2l0,0c-1.1-0.9-2.2-1.7-3.3-2.5
	c-3.2-2.1-6.5-3.6-9.7-4.6c-3.3-0.9-6.8-1.4-10.4-1.4c-4.8,0-9.2,0.7-13,2.1c-3.8,1.4-7.2,3.3-9.9,5.8c-2.7,2.5-4.8,5.5-6.3,9
	c-1.5,3.5-2.2,7.4-2.2,11.7c0,4.1,0.6,7.8,1.8,11.1c1.2,3.3,3,6.3,5.3,9.1c2.4,2.7,5.4,5.3,8.9,7.5L209.2,52.5z"/>
<path class="st5" d="M233.9,40.4c1.7,0.7,3.6,1.5,5.8,2.4c3,1.2,5.9,2.4,8.6,3.6c1.3,1.8,3.4,3.1,6.2,3.2c0.1,0,0.2,0.1,0.2,0.1
	c0.5,1.6,1.6,3.1,3,4.1c0,0,0,0,0,0.1c-2-1.6-4.3-3-6.8-4.3c-3.6-1.8-7.6-3.6-11.8-5.2c-2.2-0.9-4.2-1.7-5.9-2.4
	c-1.7-0.8-3.2-1.6-4.4-2.4c-1.2-0.9-2.2-1.9-2.8-3L233.9,40.4z"/>
<path class="st5" d="M239.8,25.2c1.3,0.5,2.6,1.1,3.7,1.8c0.6,0.3,1.1,0.7,1.6,1.1c2.8,2.4,3.5,5,3.6,6.8c-0.8,0.8-1.3,1.8-1.7,2.9
	l-0.4-0.4l0.2-0.5c0.1-0.2,1.3-3.9-2.8-7.5L239.8,25.2z"/>
<path class="st5" d="M204.3,99c0.3,0.2,0.6,0.5,0.9,0.8l0,0c0.5,0.5,1.1,1,1.7,1.5c1.5,1.2,3,2.3,4.5,3.4c1.2,0.1,2.5,0.5,3.8,1.3
	c1.1,0.7,2.7,1.1,4.5,1.4c-4.1-1.9-8.1-4.4-11.7-7.4c-0.6-0.5-1.2-1.1-1.8-1.6l0,0c-2.6-2.4-4.9-3-6.6-2.9
	C201.8,96,203.3,97.3,204.3,99"/>
<path class="st6" d="M31.6,109.5H0v-2.6l0.6-0.2c0.2-0.1,3.8-1.5,3.9-6.8V11.4C4.4,6.1,0.6,4.6,0.6,4.6L0,4.4V1.9l32.5,0.1
	c8.9,0.3,16.6,2.8,23,7.5c7,5.1,10.5,11.4,10.5,18.7l0.1,55.3c0,7.2-3.5,13.5-10.5,18.6c-6.4,4.7-14.2,7.2-23.2,7.5v0L31.6,109.5z
	 M2.3,107.7l29.3,0c9-0.2,16.7-2.6,23-7.2c6.5-4.7,9.8-10.5,9.8-17.2l-0.1-55.3c0-6.7-3.3-12.5-9.8-17.3c-6.3-4.6-14-7-22.9-7.2
	l-4.4,0H2.3c1.5,0.9,3.8,3.2,3.9,7.8v88.6C6.1,104.5,3.7,106.8,2.3,107.7 M31.3,89.7l-5,0V21.1l4.9,0c3.6,0,6.8,1,9.4,2.9
	c2.6,2,4,4.4,4,7.2l0.1,48.5c0,2.8-1.3,5.2-4,7.2C38.1,88.7,34.9,89.7,31.3,89.7 M28,87.9l3.2,0c3.3,0,6.1-0.8,8.3-2.5
	c2.2-1.6,3.3-3.5,3.3-5.8l-0.1-48.5c0-2.3-1.1-4.2-3.3-5.8c-2.3-1.7-5.1-2.5-8.3-2.5l-3.1,0V87.9z"/>
<path class="st6" d="M101.3,109.5H68.9v-2.6l0.6-0.2c0.1-0.1,3.8-1.5,3.9-6.8V11.4c-0.1-5.3-3.7-6.7-3.9-6.8l-0.6-0.2l0-2.6h32.5
	v2.6l-0.6,0.2c-0.2,0.1-3.8,1.5-3.9,6.8v88.5c0.1,5.3,3.8,6.7,3.9,6.8l0.6,0.2V109.5z M71.1,107.7H99c-1.5-0.9-3.8-3.2-3.9-7.8V11.4
	c0.1-4.6,2.4-6.8,3.9-7.8H71.1c1.5,0.9,3.8,3.2,3.9,7.8v88.6C75,104.5,72.6,106.8,71.1,107.7"/>
<path class="st6" d="M193,109.5h-32.5v-2.6l0.6-0.2c0.1-0.1,3.8-1.5,3.9-6.8V58.1l-16.1,32.7l-16.1-32.7v41.9
	c0.1,5.3,3.7,6.7,3.9,6.8l0.6,0.2l0,2.6h-32.5v-2.6l0.6-0.2c0.1-0.1,3.8-1.5,3.9-6.8V11.4c-0.1-5.3-3.7-6.7-3.9-6.8l-0.6-0.2l0-2.6
	h27.7l16.4,37.4l16.4-37.4H193v2.6l-0.6,0.2c-0.1,0.1-3.8,1.5-3.9,6.8v88.5c0.1,5.3,3.7,6.7,3.9,6.8l0.6,0.2L193,109.5z
	 M162.9,107.7h27.9c-1.5-0.9-3.8-3.2-3.9-7.8V11.4c0.1-4.6,2.4-6.8,3.9-7.8h-24.3l-17.5,40l-17.5-40h-24.3c1.5,0.9,3.8,3.2,3.9,7.8
	v88.6c-0.1,4.6-2.4,6.9-3.9,7.8H135c-1.5-0.9-3.8-3.2-3.9-7.8V50.6l17.8,36.2l17.8-36.2v49.3C166.7,104.5,164.3,106.8,162.9,107.7"
	/>
<path class="st6" d="M258.6,9.4c3.5,2.6,6.3,1,6.3,1l0.5-0.3l2,1.5l-3.9,5.1l0,0l-16.4,21.6l-1.8-1.9l0.2-0.5
	c0.1-0.2,1.3-3.9-2.8-7.5c-0.4-0.3-0.9-0.6-1.5-1c-1.1-0.7-2.2-1.2-3.4-1.6c-2.4-0.9-5-0.7-7.1-0.3c-1.1,0.2-2,0.6-2.8,1.1
	c-0.8,0.5-1.4,1.1-1.8,1.9c-0.4,0.8-0.7,1.8-0.7,3c0,1.2,0.2,2.2,0.7,3c0.5,0.9,1.3,1.7,2.3,2.4c1.1,0.8,2.4,1.6,4.1,2.3
	c1.7,0.7,3.6,1.5,5.8,2.4c4.3,1.7,8.3,3.4,12,5.3c3.7,1.9,6.9,4.1,9.6,6.6c2.7,2.6,4.8,5.7,6.4,9.2c1.5,3.6,2.3,7.9,2.3,13
	c0,5.3-0.9,10.2-2.8,14.6c-1.9,4.3-4.5,8.1-7.7,11.2c-3.2,3.1-7.1,5.5-11.5,7.1c-4.4,1.7-9.1,2.5-14.2,2.5c-4.7,0-9.5-1-14.1-3
	c-4.5-2-8.8-4.7-12.8-8c-0.6-0.5-1.2-1-1.7-1.5l0,0c-3.9-3.7-6.9-2.4-7-2.4l-0.5,0.2l-1.8-1.7l22.4-24.7l1.9,1.8l-0.2,0.6
	c-0.1,0.2-1.7,4.2,2.3,7.7c1.9,1.5,3.9,2.7,5.8,3.6c1.9,0.9,3.9,1.3,6,1.3c1.9,0,3.6-0.3,4.9-0.8c1.3-0.5,2.3-1.1,3-1.9
	c0.7-0.8,1.2-1.7,1.5-2.8c0.3-1.1,0.5-2.3,0.5-3.5c0-1.3-0.4-2.4-1.2-3.4c-0.9-1.1-2-2.1-3.3-2.9c-1.3-0.9-2.7-1.6-4.2-2.2
	c-1.5-0.6-2.8-1.2-3.9-1.6c-4.9-2-9.2-4.2-12.9-6.5c-3.7-2.3-6.8-5-9.3-7.9c-2.5-2.9-4.4-6.1-5.6-9.6c-1.2-3.5-1.9-7.4-1.9-11.7
	c0-4.5,0.8-8.7,2.3-12.4c1.6-3.7,3.8-6.9,6.7-9.6c2.9-2.6,6.4-4.7,10.5-6.1c4-1.4,8.6-2.2,13.6-2.2c3.7,0,7.4,0.5,10.8,1.5
	c3.5,1,6.9,2.6,10.2,4.8c1.1,0.8,2.2,1.6,3.4,2.5l0,0l0.6,0.5L258.6,9.4z M257.2,10.5l-0.1-0.1c-0.1-0.1-0.2-0.2-0.3-0.2l0,0
	c-1.1-0.9-2.2-1.7-3.3-2.5c-3.2-2.1-6.5-3.6-9.7-4.6c-3.3-0.9-6.8-1.4-10.4-1.4c-4.8,0-9.2,0.7-13,2.1c-3.8,1.4-7.2,3.3-9.9,5.8
	c-2.7,2.5-4.8,5.5-6.3,9C202.8,22,202,26,202,30.2c0,4.1,0.6,7.8,1.8,11.1c1.2,3.3,3,6.3,5.3,9.1c2.4,2.7,5.4,5.3,8.9,7.5
	c3.6,2.3,7.8,4.4,12.6,6.4c1.1,0.4,2.4,1,3.9,1.6c1.5,0.7,3,1.5,4.4,2.4c1.4,0.9,2.7,2,3.7,3.3c1.1,1.3,1.6,2.8,1.6,4.5
	c0,1.4-0.2,2.8-0.5,4c-0.4,1.3-1,2.5-1.9,3.5c-0.9,1-2.1,1.8-3.6,2.4c-1.5,0.6-3.3,0.9-5.5,0.9c-2.3,0-4.6-0.5-6.7-1.4
	c-2-0.9-4.1-2.2-6.2-3.8c-3.6-3-3.5-6.6-3.2-8.5l-19.4,21.4c1.5-0.3,4.4-0.3,7.8,2.8l0,0c0.6,0.5,1.1,1.1,1.8,1.6
	c3.8,3.2,8,5.8,12.4,7.7c4.4,1.9,8.9,2.9,13.4,2.9c4.8,0,9.4-0.8,13.5-2.4c4.2-1.6,7.8-3.9,10.9-6.8c3.1-2.9,5.5-6.5,7.3-10.6
	c1.8-4.1,2.7-8.8,2.7-13.9c0-4.8-0.7-8.9-2.1-12.3c-1.4-3.3-3.4-6.3-6-8.7c-2.6-2.4-5.6-4.6-9.2-6.3c-3.6-1.8-7.6-3.6-11.8-5.2
	c-2.2-0.9-4.2-1.7-5.9-2.4c-1.7-0.8-3.2-1.6-4.4-2.4c-1.2-0.9-2.2-1.9-2.8-3c-0.6-1.1-1-2.4-1-3.9c0-1.5,0.3-2.8,0.9-3.8
	c0.6-1,1.4-1.9,2.4-2.5c1-0.6,2.1-1.1,3.4-1.4c2.5-0.5,5.4-0.7,8.1,0.3c1.3,0.5,2.6,1.1,3.7,1.8c0.6,0.3,1.1,0.7,1.6,1.1
	c3.5,3.1,3.8,6.3,3.6,8l17.4-22.9c-1.4,0.5-4.1,0.8-7.2-1.5l-0.2-0.1L257.2,10.5z"/>
</svg>
